<svg xmlns="http://www.w3.org/2000/svg" version="1.1" xmlns:xlink="http://www.w3.org/1999/xlink" xmlns:svgjs="http://svgjs.com/svgjs" width="1280" height="1280"><svg version="1.1" xmlns="http://www.w3.org/2000/svg" width="1280" height="1280">
<path d="M0 0 C5.6 1.73 9.54 6.76 13.59 10.8 C14.25 11.13 14.91 11.46 15.59 11.8 C15.59 12.46 15.59 13.12 15.59 13.8 C16.47 14.19 16.47 14.19 17.37 14.59 C19.72 15.88 21.19 17.24 23.02 19.18 C25.13 21.36 27.12 23.22 29.52 25.11 C30.2 25.67 30.88 26.23 31.59 26.8 C31.59 27.46 31.59 28.12 31.59 28.8 C32.25 28.8 32.91 28.8 33.59 28.8 C33.59 29.46 33.59 30.12 33.59 30.8 C34.58 31.13 35.57 31.46 36.59 31.8 C36.59 32.46 36.59 33.12 36.59 33.8 C37.16 34.04 37.73 34.29 38.32 34.54 C40.99 36.03 42.72 37.78 44.84 39.99 C47.46 42.72 50.13 45.29 53.01 47.74 C58.85 52.8 64.26 58.29 69.73 63.75 C71.6 65.63 73.49 67.5 75.38 69.37 C76.57 70.56 77.77 71.75 78.96 72.95 C79.53 73.5 80.09 74.06 80.67 74.64 C84.59 78.57 84.59 78.57 84.59 80.8 C85.25 80.8 85.91 80.8 86.59 80.8 C88.14 82.38 88.14 82.38 89.9 84.49 C92.02 87 94.14 89.41 96.52 91.68 C98.59 93.8 98.59 93.8 98.59 95.8 C99.58 96.13 100.57 96.46 101.59 96.8 C101.59 97.46 101.59 98.12 101.59 98.8 C102.25 98.8 102.91 98.8 103.59 98.8 C103.59 99.46 103.59 100.12 103.59 100.8 C104.58 101.13 105.57 101.46 106.59 101.8 C106.59 102.46 106.59 103.12 106.59 103.8 C107.25 103.8 107.91 103.8 108.59 103.8 C110.21 105.45 110.21 105.45 112.02 107.61 C114.56 110.63 114.56 110.63 117.31 113.44 C118.59 114.8 118.59 114.8 118.59 116.8 C119.25 116.8 119.91 116.8 120.59 116.8 C122.17 118.41 122.17 118.41 123.96 120.55 C125.92 122.87 127.84 125.05 130.02 127.18 C131.59 128.8 131.59 128.8 131.59 130.8 C132.25 130.8 132.91 130.8 133.59 130.8 C138.59 136.28 138.59 136.28 138.59 138.8 C139.25 138.8 139.91 138.8 140.59 138.8 C142.17 140.38 142.17 140.38 143.96 142.49 C144.58 143.22 145.2 143.94 145.83 144.7 C146.41 145.39 146.99 146.08 147.59 146.8 C148.39 147.75 149.19 148.7 150.02 149.68 C151.59 151.8 151.59 151.8 151.59 153.8 C152.25 153.8 152.91 153.8 153.59 153.8 C153.59 154.46 153.59 155.12 153.59 155.8 C154.25 155.8 154.91 155.8 155.59 155.8 C157.17 157.38 157.17 157.38 158.96 159.49 C159.58 160.22 160.2 160.94 160.83 161.7 C161.41 162.39 161.99 163.08 162.59 163.8 C163.39 164.75 164.19 165.7 165.02 166.68 C166.59 168.8 166.59 168.8 166.59 170.8 C167.25 170.8 167.91 170.8 168.59 170.8 C170.11 172.48 171.55 174.22 172.96 175.99 C173.73 176.95 174.5 177.91 175.3 178.91 C176.05 179.86 176.81 180.82 177.59 181.8 C178.34 182.7 179.1 183.61 179.88 184.54 C181.59 186.8 181.59 186.8 181.59 188.8 C182.25 188.8 182.91 188.8 183.59 188.8 C185.53 190.92 185.53 190.92 187.71 193.68 C188.44 194.58 189.16 195.49 189.91 196.42 C191.59 198.8 191.59 198.8 191.59 200.8 C192.25 200.8 192.91 200.8 193.59 200.8 C196.59 204.26 196.59 204.26 196.59 206.8 C197.25 206.8 197.91 206.8 198.59 206.8 C199.88 208.26 199.88 208.26 201.21 210.18 C201.88 211.12 201.88 211.12 202.56 212.07 C203.59 213.8 203.59 213.8 203.59 215.8 C204.25 215.8 204.91 215.8 205.59 215.8 C207.09 217.48 207.09 217.48 208.71 219.68 C209.25 220.4 209.79 221.11 210.34 221.86 C211.59 223.8 211.59 223.8 211.59 225.8 C212.25 225.8 212.91 225.8 213.59 225.8 C216.59 229.26 216.59 229.26 216.59 231.8 C217.25 231.8 217.91 231.8 218.59 231.8 C220.17 233.83 221.64 235.86 223.09 237.99 C227.29 244.01 231.65 249.87 236.16 255.67 C239.01 259.35 241.8 263.07 244.59 266.8 C245.37 267.85 245.37 267.85 246.17 268.91 C252.92 277.96 259.56 287.07 265.96 296.36 C266.53 297.18 267.09 297.99 267.67 298.83 C268.19 299.59 268.7 300.34 269.23 301.12 C269.69 301.78 270.15 302.45 270.61 303.13 C271.59 304.8 271.59 304.8 271.59 306.8 C272.25 306.8 272.91 306.8 273.59 306.8 C274.96 308.68 274.96 308.68 276.59 311.36 C279.42 315.95 282.33 320.46 285.34 324.93 C294.84 339.13 303.97 353.56 313.01 368.07 C315.97 372.84 318.99 377.57 322.03 382.29 C324.15 385.71 326.03 389.24 327.92 392.79 C329.88 396.33 331.98 399.78 334.09 403.24 C337.49 408.83 340.56 414.5 343.39 420.41 C344.61 422.97 344.61 422.97 346.59 425.8 C346.59 426.79 346.59 427.78 346.59 428.8 C347.25 428.8 347.91 428.8 348.59 428.8 C349.08 429.8 349.58 430.81 350.09 431.84 C350.78 433.23 351.46 434.61 352.15 435.99 C352.51 436.71 352.86 437.43 353.23 438.18 C354.97 441.67 356.74 445.13 358.68 448.51 C359.62 450.17 359.62 450.17 360.59 451.86 C361.16 452.84 361.74 453.83 362.34 454.84 C363.83 458.39 363.92 460.98 363.59 464.8 C363.05 465.65 362.51 466.49 361.96 467.36 C360.22 469.81 360.22 469.81 361.27 472.93 C362.54 475.91 362.54 475.91 364.59 478.8 C365.28 480.79 365.94 482.79 366.59 484.8 C367.24 486.47 367.9 488.14 368.59 489.8 C368.92 489.8 369.25 489.8 369.59 489.8 C369.77 490.98 369.77 490.98 369.96 492.18 C370.38 494.94 370.38 494.94 372.59 496.8 C372.59 497.79 372.59 498.78 372.59 499.8 C373.18 499.97 373.77 500.14 374.38 500.32 C375.17 500.56 375.96 500.8 376.77 501.05 C377.55 501.28 378.33 501.51 379.13 501.75 C383.56 503.64 386.03 505.67 388.18 510.02 C388.84 511.86 388.84 511.86 389.52 513.74 C390.03 515.09 390.53 516.44 391.04 517.79 C391.3 518.46 391.55 519.13 391.81 519.83 C392.97 522.78 394.34 525.63 395.71 528.49 C398.11 533.57 399.96 538.67 401.65 544.03 C402.51 546.59 403.51 548.98 404.65 551.43 C406.45 555.31 407.64 559.23 408.81 563.35 C409.55 565.7 410.46 567.82 411.52 570.05 C413.84 575.03 415.2 580.22 416.65 585.5 C417.75 589.38 419.12 593.04 420.59 596.8 C422.43 602.09 424.06 607.41 425.59 612.8 C425.78 613.49 425.98 614.19 426.18 614.9 C426.82 617.16 427.45 619.42 428.09 621.68 C428.3 622.43 428.51 623.18 428.73 623.95 C430.04 628.63 431.17 633.3 432.14 638.06 C432.43 639.82 432.43 639.82 433.59 640.8 C433.91 642.25 434.2 643.71 434.46 645.18 C435.18 648.97 436.07 652.65 437.15 656.36 C438.33 660.54 438.96 664.51 439.34 668.82 C439.69 671.63 440.66 674.14 441.59 676.8 C442.79 681.81 443.64 686.79 444.09 691.93 C444.41 695.6 445.09 698.99 446.05 702.56 C448.02 710.77 448.74 719.16 449.3 727.57 C449.58 730.77 450.05 733.88 450.59 737.05 C451.56 742.97 451.97 748.82 452.24 754.8 C452.38 757.82 452.58 760.74 453.09 763.72 C453.93 769.47 453.75 775.29 453.75 781.09 C453.76 782.38 453.76 783.68 453.76 785.01 C453.77 787.75 453.77 790.5 453.77 793.24 C453.77 796 453.78 798.77 453.79 801.54 C453.89 820.59 453.85 839.59 450.02 858.33 C449.52 861.18 449.29 863.98 449.09 866.86 C448.6 873.47 447.48 879.76 445.61 886.11 C444.56 889.89 443.83 893.63 443.15 897.49 C441.33 907.5 438.92 917.18 435.59 926.8 C434.79 929.2 434 931.59 433.21 933.99 C430.78 941.3 428.23 948.56 425.59 955.8 C424.98 957.46 424.98 957.46 424.37 959.14 C421.94 965.66 419.16 971.82 415.97 978 C414.77 980.43 413.77 982.82 412.84 985.36 C408.17 997.41 401.41 1008.88 394.47 1019.75 C392.97 1022.18 391.57 1024.62 390.2 1027.13 C387.69 1031.69 384.93 1036.04 382.02 1040.36 C381.51 1041.13 381 1041.9 380.47 1042.69 C375.54 1049.99 370.29 1057.03 364.92 1064.01 C363.52 1065.89 362.19 1067.82 360.86 1069.76 C360.11 1070.76 359.36 1071.77 358.59 1072.8 C357.93 1072.8 357.27 1072.8 356.59 1072.8 C356.32 1073.37 356.05 1073.95 355.77 1074.54 C354.54 1076.88 353.16 1078.92 351.59 1081.05 C351.07 1081.76 350.55 1082.46 350.02 1083.19 C349.55 1083.72 349.07 1084.25 348.59 1084.8 C347.93 1084.8 347.27 1084.8 346.59 1084.8 C346.32 1085.38 346.05 1085.96 345.77 1086.55 C344.56 1088.86 343.28 1090.82 341.59 1092.8 C340.93 1092.8 340.27 1092.8 339.59 1092.8 C339.36 1093.35 339.13 1093.9 338.9 1094.47 C337.19 1097.5 335.03 1099.6 332.57 1102.05 C332.08 1102.54 331.58 1103.03 331.08 1103.54 C330.03 1104.58 328.99 1105.62 327.94 1106.65 C326.35 1108.22 324.77 1109.8 323.19 1111.38 C309.71 1124.8 309.71 1124.8 306.59 1124.8 C306.26 1125.79 305.93 1126.78 305.59 1127.8 C304.93 1127.8 304.27 1127.8 303.59 1127.8 C303.59 1128.46 303.59 1129.12 303.59 1129.8 C301.5 1131.6 299.41 1133.27 297.21 1134.93 C296.61 1135.39 296 1135.86 295.38 1136.34 C290.85 1139.8 290.85 1139.8 288.59 1139.8 C288.59 1140.46 288.59 1141.12 288.59 1141.8 C286.91 1143.31 286.91 1143.31 284.71 1144.93 C283.99 1145.46 283.27 1146 282.53 1146.56 C280.59 1147.8 280.59 1147.8 278.59 1147.8 C278.59 1148.46 278.59 1149.12 278.59 1149.8 C274.2 1152.8 274.2 1152.8 271.59 1152.8 C271.59 1153.46 271.59 1154.12 271.59 1154.8 C270.6 1154.8 269.61 1154.8 268.59 1154.8 C268.59 1155.46 268.59 1156.12 268.59 1156.8 C266.32 1158.49 266.32 1158.49 263.34 1160.36 C262.36 1160.98 261.39 1161.6 260.38 1162.24 C258.02 1163.56 256.22 1164.34 253.59 1164.8 C253.59 1165.46 253.59 1166.12 253.59 1166.8 C251.16 1168.54 251.16 1168.54 247.84 1170.55 C247.25 1170.9 246.67 1171.26 246.07 1171.62 C241.29 1174.48 236.37 1177 231.34 1179.38 C228.51 1180.77 228.51 1180.77 225.81 1182.7 C221.85 1185.28 217.74 1187.21 213.46 1189.18 C207.97 1191.73 202.52 1194.32 197.15 1197.11 C192.35 1199.54 187.51 1201.26 182.39 1202.87 C179.86 1203.71 177.5 1204.68 175.09 1205.8 C170.65 1207.85 166.09 1209.36 161.45 1210.86 C159.03 1211.66 156.65 1212.51 154.27 1213.43 C148.42 1215.61 142.51 1217.08 136.41 1218.34 C134.58 1218.64 134.58 1218.64 133.59 1219.8 C131.48 1220.28 129.37 1220.76 127.26 1221.21 C124.65 1221.79 122.1 1222.47 119.52 1223.18 C112.03 1225.09 104.41 1226.23 96.78 1227.44 C95.76 1227.6 94.75 1227.77 93.71 1227.93 C92.79 1228.08 91.88 1228.22 90.94 1228.37 C88.45 1228.77 88.45 1228.77 85.59 1229.8 C82.4 1230.08 79.21 1230.25 76.01 1230.42 C72.23 1230.69 68.51 1231.24 64.76 1231.79 C55.87 1233 47.04 1233.3 38.09 1233.49 C37.25 1233.51 36.4 1233.53 35.54 1233.55 C23.86 1233.81 12.2 1233.84 0.52 1233.49 C-0.69 1233.45 -1.89 1233.42 -3.14 1233.38 C-10.24 1233.11 -17.15 1232.38 -24.17 1231.26 C-27.55 1230.78 -30.89 1230.54 -34.29 1230.36 C-52.57 1229.22 -52.57 1229.22 -59.41 1225.8 C-60.65 1225.7 -61.89 1225.59 -63.16 1225.49 C-68.65 1224.95 -73.73 1223.36 -78.98 1221.74 C-82.46 1220.79 -85.85 1220.27 -89.41 1219.8 C-92.27 1218.94 -94.99 1217.98 -97.74 1216.82 C-100.51 1215.76 -103.21 1215.08 -106.1 1214.43 C-110.9 1213.26 -115.31 1211.75 -119.84 1209.84 C-122.71 1208.68 -125.6 1207.74 -128.54 1206.8 C-132.76 1205.43 -136.58 1203.82 -140.49 1201.73 C-143.22 1200.41 -146.04 1199.56 -148.95 1198.71 C-151.83 1197.65 -154.49 1196.3 -157.22 1194.9 C-159.42 1193.8 -161.63 1192.75 -163.86 1191.72 C-172.96 1187.51 -181.81 1183.14 -190.42 1177.99 C-192.79 1176.58 -195.17 1175.18 -197.55 1173.77 C-199.36 1172.7 -201.17 1171.63 -202.98 1170.55 C-204.26 1169.79 -204.26 1169.79 -205.58 1169.01 C-209.77 1166.5 -213.61 1163.89 -217.41 1160.8 C-218.4 1160.47 -219.39 1160.14 -220.41 1159.8 C-220.41 1159.14 -220.41 1158.48 -220.41 1157.8 C-221.59 1157.34 -221.59 1157.34 -222.79 1156.86 C-225.41 1155.8 -225.41 1155.8 -227.41 1154.8 C-227.41 1154.14 -227.41 1153.48 -227.41 1152.8 C-228.44 1152.46 -228.44 1152.46 -229.5 1152.12 C-233.15 1150.47 -235.99 1148.23 -239.1 1145.74 C-243.06 1142.48 -243.06 1142.48 -247.41 1139.8 C-247.41 1139.14 -247.41 1138.48 -247.41 1137.8 C-247.99 1137.53 -248.56 1137.26 -249.15 1136.99 C-251.49 1135.76 -253.54 1134.38 -255.66 1132.8 C-256.37 1132.29 -257.08 1131.77 -257.8 1131.24 C-258.6 1130.53 -258.6 1130.53 -259.41 1129.8 C-259.41 1129.14 -259.41 1128.48 -259.41 1127.8 C-260.4 1127.47 -261.39 1127.14 -262.41 1126.8 C-262.41 1126.14 -262.41 1125.48 -262.41 1124.8 C-263.56 1124.4 -263.56 1124.4 -264.73 1123.99 C-267.3 1122.85 -268.68 1121.99 -270.41 1119.8 C-270.41 1119.14 -270.41 1118.48 -270.41 1117.8 C-271.25 1117.45 -271.25 1117.45 -272.1 1117.1 C-275.01 1115.47 -277.04 1113.44 -279.4 1111.08 C-280.33 1110.15 -281.27 1109.22 -282.23 1108.26 C-282.95 1107.53 -282.95 1107.53 -283.69 1106.79 C-285.17 1105.3 -286.65 1103.82 -288.14 1102.34 C-289.07 1101.41 -290 1100.48 -290.96 1099.52 C-291.82 1098.66 -292.67 1097.81 -293.55 1096.92 C-295.41 1094.8 -295.41 1094.8 -295.41 1092.8 C-296.07 1092.8 -296.73 1092.8 -297.41 1092.8 C-302.41 1087.32 -302.41 1087.32 -302.41 1084.8 C-303.07 1084.8 -303.73 1084.8 -304.41 1084.8 C-306.36 1082.68 -306.36 1082.68 -308.54 1079.93 C-309.26 1079.02 -309.99 1078.12 -310.73 1077.18 C-312.41 1074.8 -312.41 1074.8 -312.41 1072.8 C-313.07 1072.8 -313.73 1072.8 -314.41 1072.8 C-317.41 1069.34 -317.41 1069.34 -317.41 1066.8 C-318.07 1066.8 -318.73 1066.8 -319.41 1066.8 C-319.74 1065.48 -320.07 1064.16 -320.41 1062.8 C-321.07 1062.8 -321.73 1062.8 -322.41 1062.8 C-324.32 1060.36 -326.1 1057.91 -327.85 1055.36 C-328.38 1054.6 -328.91 1053.84 -329.46 1053.05 C-334.55 1045.7 -339.42 1038.21 -344.22 1030.66 C-345.28 1029 -346.36 1027.36 -347.45 1025.71 C-351.12 1020.1 -354.25 1014.38 -357.15 1008.33 C-358.42 1005.66 -358.42 1005.66 -360.41 1002.8 C-360.41 1001.81 -360.41 1000.82 -360.41 999.8 C-361.07 999.8 -361.73 999.8 -362.41 999.8 C-363 998.38 -363 998.38 -363.6 996.93 C-364.91 993.87 -366.35 990.9 -367.85 987.93 C-371.7 980.3 -375 972.47 -378.26 964.57 C-379.13 962.49 -380.04 960.42 -380.98 958.36 C-382.74 954 -384.03 949.56 -385.38 945.06 C-386.27 942.25 -387.27 939.58 -388.41 936.86 C-391.66 929.03 -393.82 920.77 -395.6 912.49 C-396.02 909.02 -396.02 909.02 -397.41 907.8 C-397.75 906.39 -398.03 904.97 -398.29 903.55 C-399.07 899.43 -399.99 895.37 -400.98 891.3 C-402.1 886.54 -402.78 881.93 -403.17 877.06 C-403.4 874.9 -403.83 872.95 -404.41 870.86 C-405.56 866.69 -405.87 862.53 -406.17 858.22 C-406.34 855.66 -406.34 855.66 -407.41 852.8 C-407.55 851.38 -407.64 849.95 -407.7 848.53 C-407.73 847.7 -407.77 846.88 -407.81 846.03 C-407.84 845.17 -407.88 844.31 -407.91 843.43 C-407.98 841.73 -408.06 840.03 -408.13 838.34 C-408.16 837.59 -408.19 836.84 -408.22 836.06 C-408.37 833.76 -408.37 833.76 -408.91 831.35 C-412.05 815.39 -410.53 797.21 -410.59 780.95 C-410.6 779.16 -410.61 777.37 -410.62 775.58 C-410.69 766.62 -410.62 758.03 -408.88 749.21 C-408.29 746.18 -408.07 743.19 -407.91 740.11 C-407.61 735.72 -407.08 731.64 -406.02 727.38 C-405.03 723.17 -404.31 718.91 -403.56 714.65 C-402.57 709.22 -401.19 704 -399.35 698.8 C-398.32 695.79 -398.32 695.79 -397.98 692.49 C-397.44 688.96 -396.54 686 -395.37 682.66 C-393.86 678.15 -392.59 673.58 -391.3 669 C-389.99 664.43 -388.31 660.17 -386.41 655.8 C-385.74 653.69 -385.09 651.56 -384.48 649.43 C-383.07 644.72 -381.42 640.33 -379.34 635.89 C-378.43 633.84 -377.72 631.81 -377.04 629.68 C-373.78 619.59 -369.62 609.96 -364.77 600.55 C-363.55 598.08 -362.52 595.63 -361.54 593.05 C-358.98 586.44 -355.69 580.2 -352.47 573.89 C-351.45 571.87 -350.44 569.84 -349.43 567.81 C-343.28 555.38 -337.07 542.94 -329.8 531.11 C-327.78 527.74 -325.93 524.28 -324.07 520.83 C-320.94 515.1 -317.67 509.46 -314.41 503.8 C-313.75 503.8 -313.09 503.8 -312.41 503.8 C-312.23 502.93 -312.23 502.93 -312.04 502.05 C-311.41 499.78 -310.53 497.88 -309.41 495.8 C-308.75 495.8 -308.09 495.8 -307.41 495.8 C-307.3 495.22 -307.18 494.64 -307.06 494.05 C-306.38 491.67 -305.45 489.93 -304.16 487.82 C-303.7 487.08 -303.24 486.33 -302.77 485.56 C-302.28 484.77 -301.79 483.99 -301.29 483.18 C-300.79 482.36 -300.28 481.54 -299.76 480.7 C-296.78 475.9 -293.72 471.19 -290.41 466.6 C-287.58 462.63 -284.85 458.59 -282.1 454.55 C-277.62 447.97 -273.07 441.44 -268.4 434.99 C-266.23 432 -266.23 432 -264.41 428.8 C-263.75 428.8 -263.09 428.8 -262.41 428.8 C-262.21 428.14 -262 427.48 -261.79 426.8 C-259.92 422.73 -257.44 419.11 -254.41 415.8 C-253.75 415.8 -253.09 415.8 -252.41 415.8 C-252.29 415.2 -252.17 414.6 -252.04 413.99 C-251.41 411.8 -251.41 411.8 -249.41 408.8 C-248.75 408.8 -248.09 408.8 -247.41 408.8 C-247.17 408.09 -246.93 407.38 -246.69 406.64 C-245.22 403.37 -243.37 401.09 -241.04 398.36 C-238.51 395.36 -236.06 392.44 -233.98 389.11 C-233.46 388.35 -232.95 387.59 -232.41 386.8 C-231.75 386.8 -231.09 386.8 -230.41 386.8 C-230.1 386.18 -229.8 385.56 -229.48 384.93 C-228.79 383.55 -228.1 382.18 -227.41 380.8 C-226.75 380.8 -226.09 380.8 -225.41 380.8 C-225.15 380.23 -224.88 379.66 -224.6 379.07 C-223.37 376.72 -221.99 374.68 -220.41 372.55 C-219.64 371.49 -219.64 371.49 -218.85 370.41 C-218.38 369.88 -217.9 369.35 -217.41 368.8 C-216.75 368.8 -216.09 368.8 -215.41 368.8 C-215.04 368 -215.04 368 -214.66 367.18 C-213.11 364.22 -211.38 361.5 -209.41 358.8 C-208.75 358.8 -208.09 358.8 -207.41 358.8 C-207 357.92 -207 357.92 -206.57 357.02 C-204.76 353.55 -202.33 350.62 -199.91 347.55 C-199.42 346.9 -198.92 346.25 -198.4 345.58 C-197.12 343.95 -195.77 342.37 -194.41 340.8 C-193.75 340.8 -193.09 340.8 -192.41 340.8 C-192.15 340.06 -191.88 339.32 -191.6 338.55 C-190.46 335.91 -189.32 333.95 -187.41 331.8 C-186.75 331.8 -186.09 331.8 -185.41 331.8 C-185.1 331.18 -184.8 330.56 -184.48 329.93 C-183.79 328.55 -183.1 327.18 -182.41 325.8 C-181.75 325.8 -181.09 325.8 -180.41 325.8 C-180.08 324.48 -179.75 323.16 -179.41 321.8 C-178.75 321.8 -178.09 321.8 -177.41 321.8 C-177.1 321.18 -176.8 320.56 -176.48 319.93 C-175.79 318.55 -175.1 317.18 -174.41 315.8 C-173.75 315.8 -173.09 315.8 -172.41 315.8 C-172.17 315.09 -171.93 314.38 -171.69 313.64 C-170.22 310.37 -168.37 308.09 -166.04 305.36 C-163.51 302.36 -161.06 299.44 -158.98 296.11 C-158.46 295.35 -157.95 294.59 -157.41 293.8 C-156.75 293.8 -156.09 293.8 -155.41 293.8 C-155.14 293.22 -154.86 292.64 -154.57 292.04 C-152.66 288.34 -150.26 284.98 -147.91 281.55 C-147.42 280.81 -146.92 280.06 -146.4 279.29 C-145.92 278.59 -145.44 277.89 -144.95 277.16 C-144.29 276.19 -144.29 276.19 -143.62 275.21 C-143.22 274.74 -142.82 274.28 -142.41 273.8 C-141.75 273.8 -141.09 273.8 -140.41 273.8 C-140.14 273.22 -139.86 272.65 -139.58 272.05 C-137.57 268.17 -135.01 264.65 -132.54 261.05 C-131.96 260.21 -131.39 259.37 -130.8 258.51 C-126.06 251.64 -121.13 244.95 -116.07 238.32 C-112.3 233.35 -108.73 228.4 -105.7 222.94 C-102 216.78 -97.68 210.95 -93.48 205.12 C-89.93 200.17 -86.89 195.15 -84.03 189.76 C-82.16 186.33 -80.19 182.96 -78.16 179.61 C-77.5 178.51 -76.83 177.4 -76.15 176.26 C-75.58 175.45 -75 174.64 -74.41 173.8 C-73.75 173.8 -73.09 173.8 -72.41 173.8 C-72.3 173.23 -72.18 172.66 -72.06 172.08 C-71.36 169.6 -70.37 167.64 -69.12 165.39 C-68.66 164.55 -68.2 163.71 -67.72 162.85 C-67.23 161.97 -66.73 161.08 -66.23 160.18 C-65.47 158.82 -65.47 158.82 -64.7 157.43 C-61.85 152.31 -58.92 147.26 -55.86 142.26 C-48.18 129.24 -40.76 115.43 -35.41 101.28 C-34.2 98.27 -32.81 95.36 -31.41 92.43 C-28.96 87.19 -27.03 81.95 -25.28 76.45 C-24.57 74.26 -23.78 72.21 -22.85 70.11 C-19.54 62.48 -17.59 54.66 -15.77 46.56 C-14.51 40.99 -14.51 40.99 -13.41 38.8 C-12.17 32.43 -11.41 26.05 -11.2 19.57 C-11.17 18.67 -11.14 17.78 -11.11 16.86 C-11.06 15.09 -11.03 13.32 -11.02 11.56 C-10.86 5.43 -10.86 5.43 -8.63 2.27 C-5.56 0.23 -3.64 -0.12 0 0 Z M356.59 468.8 C357.25 469.46 357.91 470.12 358.59 470.8 C358.92 470.14 359.25 469.48 359.59 468.8 C358.6 468.8 357.61 468.8 356.59 468.8 Z " fill="#91AE4A" transform="translate(644.4140625,23.19921875)"></path>
<path d="M0 0 C35.13 -0.02 70.25 -0.04 105.38 -0.05 C109.52 -0.05 113.67 -0.05 117.81 -0.05 C118.63 -0.06 119.46 -0.06 120.31 -0.06 C133.68 -0.06 147.05 -0.07 160.42 -0.08 C174.14 -0.09 187.85 -0.09 201.56 -0.09 C210.03 -0.1 218.49 -0.1 226.96 -0.11 C232.76 -0.11 238.56 -0.11 244.36 -0.11 C247.71 -0.11 251.06 -0.11 254.41 -0.12 C258.03 -0.12 261.66 -0.12 265.28 -0.12 C266.35 -0.12 267.42 -0.13 268.52 -0.13 C269.48 -0.13 270.45 -0.13 271.44 -0.12 C272.28 -0.12 273.12 -0.12 273.98 -0.12 C276 0 276 0 278 1 C278.18 8.28 278.3 15.55 278.38 22.83 C278.42 25.31 278.47 27.78 278.53 30.26 C278.61 33.82 278.65 37.38 278.68 40.94 C278.72 42.04 278.76 43.14 278.79 44.28 C278.8 49.72 278.6 53.08 274.68 57.06 C273.47 58.07 272.25 59.05 271 60 C269.83 61.02 268.66 62.04 267.5 63.06 C266.84 63.63 266.17 64.2 265.49 64.79 C262.14 67.76 258.89 70.82 255.62 73.88 C250.64 78.55 245.62 83.17 240.52 87.73 C237.49 90.46 234.49 93.23 231.5 96 C227.73 99.49 223.95 102.95 220.12 106.38 C215.86 110.19 211.68 114.09 207.5 118 C202.55 122.63 197.57 127.21 192.52 131.73 C188.95 134.94 185.43 138.2 181.91 141.47 C179.21 143.97 176.5 146.46 173.76 148.92 C173.25 149.38 172.75 149.83 172.22 150.3 C170.83 151.55 169.44 152.8 168.05 154.04 C165.48 156.5 165.05 157.38 164.75 160.94 C164.72 163.92 164.72 163.92 166.21 165.62 C168.45 167.35 170.17 167.7 172.95 168.21 C173.95 168.4 174.95 168.59 175.98 168.79 C177.6 169.08 177.6 169.08 179.25 169.38 C181.53 169.81 183.82 170.25 186.1 170.69 C188.4 171.13 190.7 171.56 193 172 C219.39 177.03 244.8 184.48 265 203 C265.92 203.84 266.85 204.69 267.8 205.55 C284.85 221.83 297.06 244.61 298.16 268.48 C298.21 272.46 298.25 276.45 298.25 280.44 C298.25 281.16 298.25 281.87 298.25 282.61 C298.24 293.04 297.87 302.91 295 313 C294.6 314.51 294.6 314.51 294.19 316.05 C284.66 348.07 260.97 373.45 232.05 389.2 C177.19 417.98 107.63 414.81 49.85 397.15 C27 389.92 3.06 380.73 -16.29 366.28 C-17.98 364.94 -17.98 364.94 -20 364 C-18.58 360.29 -16.93 356.8 -15.09 353.27 C-14.52 352.17 -13.95 351.06 -13.35 349.92 C-12.74 348.74 -12.12 347.56 -11.5 346.38 C-10.87 345.16 -10.23 343.94 -9.6 342.72 C-8.33 340.29 -7.06 337.85 -5.78 335.42 C-4.22 332.42 -2.66 329.42 -1.1 326.42 C3.39 317.81 7.99 309.32 13 301 C17.46 302.53 21.09 304.96 24.94 307.62 C62.08 332.77 107.44 345.49 152.3 338.75 C170.72 335.01 187.74 327.71 198.46 311.62 C206.51 297.91 207.27 279.74 203.94 264.38 C199.72 250.65 190.97 239.97 178.71 232.82 C161.81 224.07 141.47 222.56 122.79 222.56 C121.11 222.55 119.44 222.53 117.76 222.52 C113.41 222.48 109.07 222.46 104.72 222.45 C97.71 222.42 90.7 222.38 83.69 222.33 C81.26 222.31 78.82 222.31 76.38 222.3 C74.9 222.29 73.42 222.28 71.93 222.27 C70.64 222.27 69.35 222.26 68.01 222.26 C65 222 65 222 63 220 C62.71 218.07 62.71 218.07 62.66 215.68 C62.64 214.78 62.62 213.89 62.59 212.97 C62.58 211.51 62.58 211.51 62.56 210.02 C62.54 208.52 62.54 208.52 62.52 207 C62.49 204.88 62.48 202.76 62.46 200.64 C62.44 197.41 62.36 194.18 62.29 190.96 C62.27 188.9 62.26 186.83 62.25 184.77 C62.22 183.81 62.19 182.86 62.16 181.87 C62.2 175.42 63.68 172.21 68.23 167.63 C68.81 167.09 69.4 166.55 70 166 C70.91 165.13 71.82 164.26 72.75 163.37 C73.68 162.54 74.61 161.72 75.56 160.88 C83.03 154.14 90.07 146.98 97.13 139.83 C101.65 135.27 106.21 130.86 111.09 126.68 C114.56 123.62 117.76 120.3 121 117 C124.87 113.06 128.73 109.18 132.92 105.57 C137.6 101.55 141.91 97.2 146.25 92.81 C147.04 92.02 147.83 91.23 148.64 90.41 C150.1 88.94 151.56 87.47 153.02 86 C154.39 84.62 155.79 83.28 157.23 81.97 C159.35 79.99 159.35 79.99 159.44 76.44 C159.28 73.14 159.28 73.14 157.86 71.31 C155.16 69.41 153.09 69.62 149.81 69.61 C148.51 69.61 147.21 69.6 145.88 69.59 C144.44 69.59 142.99 69.59 141.55 69.6 C140.04 69.59 138.53 69.59 137.01 69.58 C133.75 69.56 130.49 69.56 127.22 69.56 C122.07 69.56 116.91 69.54 111.76 69.52 C101.75 69.48 91.74 69.46 81.73 69.44 C68.99 69.42 56.24 69.39 43.5 69.34 C38.37 69.32 33.24 69.31 28.11 69.3 C24.93 69.3 21.74 69.29 18.56 69.28 C17.08 69.27 15.59 69.27 14.11 69.28 C12.1 69.28 10.08 69.27 8.07 69.26 C6.94 69.26 5.81 69.26 4.64 69.25 C2 69 2 69 0 67 C-0.24 64.22 -0.24 64.22 -0.23 60.62 C-0.23 59.97 -0.23 59.31 -0.23 58.64 C-0.23 56.48 -0.21 54.31 -0.2 52.15 C-0.19 50.65 -0.19 49.15 -0.19 47.65 C-0.18 43.7 -0.16 39.75 -0.14 35.8 C-0.12 31.78 -0.11 27.75 -0.1 23.72 C-0.08 15.81 -0.04 7.91 0 0 Z " fill="#FBFDFD" transform="translate(537,658)"></path>
<path d="M0 0 C5.6 1.73 9.54 6.76 13.59 10.8 C14.25 11.13 14.91 11.46 15.59 11.8 C15.59 12.46 15.59 13.12 15.59 13.8 C16.47 14.19 16.47 14.19 17.37 14.59 C19.72 15.88 21.19 17.24 23.02 19.18 C25.13 21.36 27.12 23.22 29.52 25.11 C30.2 25.67 30.88 26.23 31.59 26.8 C31.59 27.46 31.59 28.12 31.59 28.8 C32.25 28.8 32.91 28.8 33.59 28.8 C33.59 29.46 33.59 30.12 33.59 30.8 C34.58 31.13 35.57 31.46 36.59 31.8 C36.59 32.46 36.59 33.12 36.59 33.8 C37.16 34.04 37.73 34.29 38.32 34.54 C40.99 36.03 42.72 37.78 44.84 39.99 C47.46 42.72 50.13 45.29 53.01 47.74 C58.85 52.8 64.26 58.29 69.73 63.75 C71.6 65.63 73.49 67.5 75.38 69.37 C76.57 70.56 77.77 71.75 78.96 72.95 C79.53 73.5 80.09 74.06 80.67 74.64 C84.59 78.57 84.59 78.57 84.59 80.8 C85.25 80.8 85.91 80.8 86.59 80.8 C88.14 82.38 88.14 82.38 89.9 84.49 C92.02 87 94.14 89.41 96.52 91.68 C98.59 93.8 98.59 93.8 98.59 95.8 C99.58 96.13 100.57 96.46 101.59 96.8 C101.59 97.46 101.59 98.12 101.59 98.8 C102.25 98.8 102.91 98.8 103.59 98.8 C103.59 99.46 103.59 100.12 103.59 100.8 C104.58 101.13 105.57 101.46 106.59 101.8 C106.59 102.46 106.59 103.12 106.59 103.8 C107.25 103.8 107.91 103.8 108.59 103.8 C110.21 105.45 110.21 105.45 112.02 107.61 C114.56 110.63 114.56 110.63 117.31 113.44 C118.59 114.8 118.59 114.8 118.59 116.8 C119.25 116.8 119.91 116.8 120.59 116.8 C122.17 118.41 122.17 118.41 123.96 120.55 C125.92 122.87 127.84 125.05 130.02 127.18 C131.59 128.8 131.59 128.8 131.59 130.8 C132.25 130.8 132.91 130.8 133.59 130.8 C138.59 136.28 138.59 136.28 138.59 138.8 C139.25 138.8 139.91 138.8 140.59 138.8 C142.17 140.38 142.17 140.38 143.96 142.49 C144.58 143.22 145.2 143.94 145.83 144.7 C146.41 145.39 146.99 146.08 147.59 146.8 C148.39 147.75 149.19 148.7 150.02 149.68 C151.59 151.8 151.59 151.8 151.59 153.8 C152.25 153.8 152.91 153.8 153.59 153.8 C153.59 154.46 153.59 155.12 153.59 155.8 C154.25 155.8 154.91 155.8 155.59 155.8 C157.17 157.38 157.17 157.38 158.96 159.49 C159.58 160.22 160.2 160.94 160.83 161.7 C161.41 162.39 161.99 163.08 162.59 163.8 C163.39 164.75 164.19 165.7 165.02 166.68 C166.59 168.8 166.59 168.8 166.59 170.8 C167.25 170.8 167.91 170.8 168.59 170.8 C170.11 172.48 171.55 174.22 172.96 175.99 C173.73 176.95 174.5 177.91 175.3 178.91 C176.05 179.86 176.81 180.82 177.59 181.8 C178.34 182.7 179.1 183.61 179.88 184.54 C181.59 186.8 181.59 186.8 181.59 188.8 C182.25 188.8 182.91 188.8 183.59 188.8 C185.53 190.92 185.53 190.92 187.71 193.68 C188.44 194.58 189.16 195.49 189.91 196.42 C191.59 198.8 191.59 198.8 191.59 200.8 C192.25 200.8 192.91 200.8 193.59 200.8 C196.59 204.26 196.59 204.26 196.59 206.8 C197.25 206.8 197.91 206.8 198.59 206.8 C199.88 208.26 199.88 208.26 201.21 210.18 C201.88 211.12 201.88 211.12 202.56 212.07 C203.59 213.8 203.59 213.8 203.59 215.8 C204.25 215.8 204.91 215.8 205.59 215.8 C207.09 217.48 207.09 217.48 208.71 219.68 C209.25 220.4 209.79 221.11 210.34 221.86 C211.59 223.8 211.59 223.8 211.59 225.8 C212.25 225.8 212.91 225.8 213.59 225.8 C216.59 229.26 216.59 229.26 216.59 231.8 C217.25 231.8 217.91 231.8 218.59 231.8 C220.17 233.83 221.64 235.86 223.09 237.99 C227.29 244.01 231.65 249.87 236.16 255.67 C239.01 259.35 241.8 263.07 244.59 266.8 C245.37 267.85 245.37 267.85 246.17 268.91 C252.92 277.96 259.56 287.07 265.96 296.36 C266.53 297.18 267.09 297.99 267.67 298.83 C268.19 299.59 268.7 300.34 269.23 301.12 C269.69 301.78 270.15 302.45 270.61 303.13 C271.59 304.8 271.59 304.8 271.59 306.8 C272.25 306.8 272.91 306.8 273.59 306.8 C274.96 308.68 274.96 308.68 276.59 311.36 C279.42 315.95 282.33 320.46 285.34 324.93 C294.84 339.13 303.97 353.56 313.01 368.07 C315.97 372.84 318.99 377.57 322.03 382.29 C324.15 385.71 326.03 389.24 327.92 392.79 C329.88 396.33 331.98 399.78 334.09 403.24 C337.49 408.83 340.56 414.5 343.39 420.41 C344.61 422.97 344.61 422.97 346.59 425.8 C346.59 426.79 346.59 427.78 346.59 428.8 C347.25 428.8 347.91 428.8 348.59 428.8 C349.08 429.8 349.58 430.81 350.09 431.84 C350.78 433.23 351.46 434.61 352.15 435.99 C352.51 436.71 352.86 437.43 353.23 438.18 C354.97 441.67 356.74 445.13 358.68 448.51 C359.62 450.17 359.62 450.17 360.59 451.86 C361.16 452.84 361.74 453.83 362.34 454.84 C363.84 458.4 363.95 460.97 363.59 464.8 C361.59 467.74 361.59 467.74 359.59 469.8 C358.19 469.57 356.79 469.31 355.4 469.05 C354.62 468.91 353.84 468.77 353.04 468.63 C349.22 467.34 346.61 465.53 344.53 462 C343.44 459.77 342.44 457.52 341.46 455.24 C337.57 446.61 333.09 438.49 328.26 430.36 C325.77 426.17 323.44 421.9 321.11 417.62 C313.3 403.23 305.08 389.15 296.23 375.38 C293.73 371.45 291.27 367.49 288.81 363.54 C283.21 354.53 277.55 345.58 271.59 336.8 C270.36 334.95 269.13 333.09 267.9 331.24 C259.05 317.98 250.01 304.88 240.62 291.99 C238.77 289.44 236.93 286.88 235.11 284.3 C228.74 275.27 222.06 266.49 215.34 257.72 C212.49 254 209.68 250.26 206.9 246.49 C202.92 241.16 198.74 236.01 194.53 230.87 C190.95 226.49 187.43 222.07 183.96 217.61 C179.51 211.91 174.89 206.38 170.2 200.88 C167.81 198.07 165.47 195.23 163.15 192.36 C156.13 183.75 148.92 175.3 141.4 167.11 C138.25 163.68 135.25 160.19 132.34 156.55 C128 151.18 123.34 146.17 118.61 141.15 C115.58 137.94 112.59 134.72 109.71 131.36 C106.82 128 103.71 124.91 100.55 121.8 C98.03 119.24 95.71 116.53 93.37 113.8 C90.95 111.09 88.38 108.57 85.77 106.05 C83.97 104.2 82.31 102.31 80.63 100.35 C75.89 94.92 70.78 89.85 65.68 84.77 C64.64 83.72 63.59 82.67 62.54 81.62 C60.36 79.44 58.18 77.26 55.99 75.07 C53.21 72.3 50.43 69.52 47.66 66.74 C45.5 64.58 43.34 62.42 41.18 60.26 C40.15 59.23 39.13 58.21 38.11 57.19 C32.94 52.01 27.74 46.91 22.17 42.17 C20.19 40.46 18.38 38.63 16.59 36.74 C12.89 32.97 8.9 29.83 4.59 26.8 C4.52 27.67 4.46 28.53 4.39 29.42 C0.98 64.52 -14.64 100.82 -31.58 131.45 C-33.5 134.96 -35.28 138.52 -37.04 142.11 C-39.47 147.03 -42.09 151.74 -44.96 156.4 C-46.45 158.85 -47.81 161.34 -49.16 163.86 C-65.34 193.71 -84.26 222.2 -103.99 249.8 C-105.44 251.84 -106.89 253.9 -108.33 255.95 C-122.04 275.53 -136.37 294.66 -151.18 313.42 C-153.76 316.68 -156.32 319.96 -158.86 323.25 C-164.82 330.96 -170.83 338.61 -177.11 346.07 C-182.99 353.05 -188.71 360.16 -194.4 367.29 C-197.2 370.78 -200.04 374.24 -202.87 377.7 C-211.84 388.64 -220.73 399.63 -229.41 410.8 C-230.21 411.82 -231.01 412.84 -231.83 413.89 C-239.2 423.4 -246.34 433.07 -253.41 442.8 C-253.89 443.45 -254.37 444.11 -254.86 444.78 C-280.78 480.52 -304.19 518.1 -324.95 557.06 C-326.28 559.56 -327.64 562.05 -328.99 564.55 C-344.77 593.76 -357.56 624.46 -368.41 655.8 C-368.94 657.29 -368.94 657.29 -369.47 658.82 C-378.94 685.98 -385.53 713.49 -390.41 741.8 C-390.71 743.51 -390.71 743.51 -391.01 745.25 C-397.59 785.3 -394.45 830.01 -387.41 869.8 C-387.23 870.85 -387.05 871.9 -386.86 872.98 C-374.92 939.38 -348.04 1001.64 -306.41 1054.8 C-305.9 1055.46 -305.39 1056.12 -304.86 1056.79 C-297.83 1065.74 -290.41 1074.21 -282.57 1082.45 C-279.99 1085.17 -277.49 1087.96 -275.04 1090.8 C-272.04 1094.22 -268.82 1097.18 -265.35 1100.12 C-263.44 1101.77 -261.68 1103.5 -259.91 1105.3 C-247.46 1117.9 -233 1128.8 -218.41 1138.8 C-217.54 1139.41 -217.54 1139.41 -216.64 1140.02 C-207.08 1146.57 -197.26 1152.66 -187.34 1158.63 C-185.76 1159.59 -184.18 1160.57 -182.61 1161.55 C-175.88 1165.72 -168.82 1169.22 -161.7 1172.68 C-159.35 1173.83 -157.01 1175.01 -154.66 1176.18 C-140.63 1183.14 -126.22 1188.71 -111.41 1193.8 C-110.26 1194.2 -109.11 1194.59 -107.93 1195 C-71.77 1207.26 -32.5 1214.93 5.74 1214.97 C6.97 1214.97 8.19 1214.98 9.45 1214.98 C12.02 1214.98 14.6 1214.99 17.17 1214.99 C21.05 1214.99 24.92 1215.01 28.8 1215.03 C42.86 1215.06 56.63 1214.6 70.59 1212.8 C71.82 1212.65 73.04 1212.51 74.31 1212.36 C99.98 1209.22 124.94 1203.6 149.59 1195.8 C150.51 1195.51 151.44 1195.22 152.39 1194.92 C179.82 1186.2 207.03 1173.8 231.59 1158.8 C233.26 1157.8 234.92 1156.8 236.59 1155.79 C247.08 1149.43 257.11 1142.75 266.78 1135.2 C268.75 1133.67 270.75 1132.17 272.75 1130.68 C284.34 1122 295.98 1112.81 306.03 1102.36 C307.72 1100.67 309.51 1099.15 311.34 1097.61 C316.37 1093.27 320.73 1088.31 325.16 1083.37 C326.54 1081.85 327.94 1080.35 329.35 1078.85 C335.74 1072.04 341.59 1064.92 347.27 1057.5 C348.5 1055.91 349.75 1054.34 351.01 1052.76 C362.42 1038.33 372.36 1022.78 381.44 1006.81 C382.58 1004.82 383.73 1002.84 384.88 1000.86 C429.27 924.22 441.21 834.35 411.77 630.83 C407.9 616.32 403.33 602.04 398.59 587.8 C398.27 586.85 397.96 585.89 397.64 584.91 C393.91 573.59 389.57 562.51 385.21 551.43 C384.79 550.36 384.79 550.36 384.36 549.27 C381.56 542.15 378.72 535.06 375.71 528.04 C375.28 527.03 374.86 526.03 374.42 525 C373.64 523.18 372.85 521.37 372.04 519.56 C369.91 514.58 369.03 511.22 370.59 505.8 C373.15 502.86 373.15 502.86 375.59 500.8 C380.13 502.07 383.16 503.54 386.59 506.8 C388.18 510.02 388.18 510.02 389.52 513.74 C390.03 515.09 390.53 516.44 391.04 517.79 C391.3 518.46 391.55 519.13 391.81 519.83 C392.97 522.78 394.34 525.63 395.71 528.49 C398.11 533.57 399.96 538.67 401.65 544.03 C402.51 546.59 403.51 548.98 404.65 551.43 C406.45 555.31 407.64 559.23 408.81 563.35 C409.55 565.7 410.46 567.82 411.52 570.05 C413.84 575.03 415.2 580.22 416.65 585.5 C417.75 589.38 419.12 593.04 420.59 596.8 C422.43 602.09 424.06 607.41 425.59 612.8 C425.78 613.49 425.98 614.19 426.18 614.9 C426.82 617.16 427.45 619.42 428.09 621.68 C428.3 622.43 428.51 623.18 428.73 623.95 C430.04 628.63 431.17 633.3 432.14 638.06 C432.43 639.82 432.43 639.82 433.59 640.8 C433.91 642.25 434.2 643.71 434.46 645.18 C435.18 648.97 436.07 652.65 437.15 656.36 C438.33 660.54 438.96 664.51 439.34 668.82 C439.69 671.63 440.66 674.14 441.59 676.8 C442.79 681.81 443.64 686.79 444.09 691.93 C444.41 695.6 445.09 698.99 446.05 702.56 C448.02 710.77 448.74 719.16 449.3 727.57 C449.58 730.77 450.05 733.88 450.59 737.05 C451.56 742.97 451.97 748.82 452.24 754.8 C452.38 757.82 452.58 760.74 453.09 763.72 C453.93 769.47 453.75 775.29 453.75 781.09 C453.76 782.38 453.76 783.68 453.76 785.01 C453.77 787.75 453.77 790.5 453.77 793.24 C453.77 796 453.78 798.77 453.79 801.54 C453.89 820.59 453.85 839.59 450.02 858.33 C449.52 861.18 449.29 863.98 449.09 866.86 C448.6 873.47 447.48 879.76 445.61 886.11 C444.56 889.89 443.83 893.63 443.15 897.49 C441.33 907.5 438.92 917.18 435.59 926.8 C434.79 929.2 434 931.59 433.21 933.99 C430.78 941.3 428.23 948.56 425.59 955.8 C424.98 957.46 424.98 957.46 424.37 959.14 C421.94 965.66 419.16 971.82 415.97 978 C414.77 980.43 413.77 982.82 412.84 985.36 C408.17 997.41 401.41 1008.88 394.47 1019.75 C392.97 1022.18 391.57 1024.62 390.2 1027.13 C387.69 1031.69 384.93 1036.04 382.02 1040.36 C381.51 1041.13 381 1041.9 380.47 1042.69 C375.54 1049.99 370.29 1057.03 364.92 1064.01 C363.52 1065.89 362.19 1067.82 360.86 1069.76 C360.11 1070.76 359.36 1071.77 358.59 1072.8 C357.93 1072.8 357.27 1072.8 356.59 1072.8 C356.32 1073.37 356.05 1073.95 355.77 1074.54 C354.54 1076.88 353.16 1078.92 351.59 1081.05 C351.07 1081.76 350.55 1082.46 350.02 1083.19 C349.55 1083.72 349.07 1084.25 348.59 1084.8 C347.93 1084.8 347.27 1084.8 346.59 1084.8 C346.32 1085.38 346.05 1085.96 345.77 1086.55 C344.56 1088.86 343.28 1090.82 341.59 1092.8 C340.93 1092.8 340.27 1092.8 339.59 1092.8 C339.36 1093.35 339.13 1093.9 338.9 1094.47 C337.19 1097.5 335.03 1099.6 332.57 1102.05 C332.08 1102.54 331.58 1103.03 331.08 1103.54 C330.03 1104.58 328.99 1105.62 327.94 1106.65 C326.35 1108.22 324.77 1109.8 323.19 1111.38 C309.71 1124.8 309.71 1124.8 306.59 1124.8 C306.26 1125.79 305.93 1126.78 305.59 1127.8 C304.93 1127.8 304.27 1127.8 303.59 1127.8 C303.59 1128.46 303.59 1129.12 303.59 1129.8 C301.5 1131.6 299.41 1133.27 297.21 1134.93 C296.61 1135.39 296 1135.86 295.38 1136.34 C290.85 1139.8 290.85 1139.8 288.59 1139.8 C288.59 1140.46 288.59 1141.12 288.59 1141.8 C286.91 1143.31 286.91 1143.31 284.71 1144.93 C283.99 1145.46 283.27 1146 282.53 1146.56 C280.59 1147.8 280.59 1147.8 278.59 1147.8 C278.59 1148.46 278.59 1149.12 278.59 1149.8 C274.2 1152.8 274.2 1152.8 271.59 1152.8 C271.59 1153.46 271.59 1154.12 271.59 1154.8 C270.6 1154.8 269.61 1154.8 268.59 1154.8 C268.59 1155.46 268.59 1156.12 268.59 1156.8 C266.32 1158.49 266.32 1158.49 263.34 1160.36 C262.36 1160.98 261.39 1161.6 260.38 1162.24 C258.02 1163.56 256.22 1164.34 253.59 1164.8 C253.59 1165.46 253.59 1166.12 253.59 1166.8 C251.16 1168.54 251.16 1168.54 247.84 1170.55 C247.25 1170.9 246.67 1171.26 246.07 1171.62 C241.29 1174.48 236.37 1177 231.34 1179.38 C228.51 1180.77 228.51 1180.77 225.81 1182.7 C221.85 1185.28 217.74 1187.21 213.46 1189.18 C207.97 1191.73 202.52 1194.32 197.15 1197.11 C192.35 1199.54 187.51 1201.26 182.39 1202.87 C179.86 1203.71 177.5 1204.68 175.09 1205.8 C170.65 1207.85 166.09 1209.36 161.45 1210.86 C159.03 1211.66 156.65 1212.51 154.27 1213.43 C148.42 1215.61 142.51 1217.08 136.41 1218.34 C134.58 1218.64 134.58 1218.64 133.59 1219.8 C131.48 1220.28 129.37 1220.76 127.26 1221.21 C124.65 1221.79 122.1 1222.47 119.52 1223.18 C112.03 1225.09 104.41 1226.23 96.78 1227.44 C95.76 1227.6 94.75 1227.77 93.71 1227.93 C92.79 1228.08 91.88 1228.22 90.94 1228.37 C88.45 1228.77 88.45 1228.77 85.59 1229.8 C82.4 1230.08 79.21 1230.25 76.01 1230.42 C72.23 1230.69 68.51 1231.24 64.76 1231.79 C55.87 1233 47.04 1233.3 38.09 1233.49 C37.25 1233.51 36.4 1233.53 35.54 1233.55 C23.86 1233.81 12.2 1233.84 0.52 1233.49 C-0.69 1233.45 -1.89 1233.42 -3.14 1233.38 C-10.24 1233.11 -17.15 1232.38 -24.17 1231.26 C-27.55 1230.78 -30.89 1230.54 -34.29 1230.36 C-52.57 1229.22 -52.57 1229.22 -59.41 1225.8 C-60.65 1225.7 -61.89 1225.59 -63.16 1225.49 C-68.65 1224.95 -73.73 1223.36 -78.98 1221.74 C-82.46 1220.79 -85.85 1220.27 -89.41 1219.8 C-92.27 1218.94 -94.99 1217.98 -97.74 1216.82 C-100.51 1215.76 -103.21 1215.08 -106.1 1214.43 C-110.9 1213.26 -115.31 1211.75 -119.84 1209.84 C-122.71 1208.68 -125.6 1207.74 -128.54 1206.8 C-132.76 1205.43 -136.58 1203.82 -140.49 1201.73 C-143.22 1200.41 -146.04 1199.56 -148.95 1198.71 C-151.83 1197.65 -154.49 1196.3 -157.22 1194.9 C-159.42 1193.8 -161.63 1192.75 -163.86 1191.72 C-172.96 1187.51 -181.81 1183.14 -190.42 1177.99 C-192.79 1176.58 -195.17 1175.18 -197.55 1173.77 C-199.36 1172.7 -201.17 1171.63 -202.98 1170.55 C-204.26 1169.79 -204.26 1169.79 -205.58 1169.01 C-209.77 1166.5 -213.61 1163.89 -217.41 1160.8 C-218.4 1160.47 -219.39 1160.14 -220.41 1159.8 C-220.41 1159.14 -220.41 1158.48 -220.41 1157.8 C-221.59 1157.34 -221.59 1157.34 -222.79 1156.86 C-225.41 1155.8 -225.41 1155.8 -227.41 1154.8 C-227.41 1154.14 -227.41 1153.48 -227.41 1152.8 C-228.44 1152.46 -228.44 1152.46 -229.5 1152.12 C-233.15 1150.47 -235.99 1148.23 -239.1 1145.74 C-243.06 1142.48 -243.06 1142.48 -247.41 1139.8 C-247.41 1139.14 -247.41 1138.48 -247.41 1137.8 C-247.99 1137.53 -248.56 1137.26 -249.15 1136.99 C-251.49 1135.76 -253.54 1134.38 -255.66 1132.8 C-256.37 1132.29 -257.08 1131.77 -257.8 1131.24 C-258.6 1130.53 -258.6 1130.53 -259.41 1129.8 C-259.41 1129.14 -259.41 1128.48 -259.41 1127.8 C-260.4 1127.47 -261.39 1127.14 -262.41 1126.8 C-262.41 1126.14 -262.41 1125.48 -262.41 1124.8 C-263.56 1124.4 -263.56 1124.4 -264.73 1123.99 C-267.3 1122.85 -268.68 1121.99 -270.41 1119.8 C-270.41 1119.14 -270.41 1118.48 -270.41 1117.8 C-271.25 1117.45 -271.25 1117.45 -272.1 1117.1 C-275.01 1115.47 -277.04 1113.44 -279.4 1111.08 C-280.33 1110.15 -281.27 1109.22 -282.23 1108.26 C-282.95 1107.53 -282.95 1107.53 -283.69 1106.79 C-285.17 1105.3 -286.65 1103.82 -288.14 1102.34 C-289.07 1101.41 -290 1100.48 -290.96 1099.52 C-291.82 1098.66 -292.67 1097.81 -293.55 1096.92 C-295.41 1094.8 -295.41 1094.8 -295.41 1092.8 C-296.07 1092.8 -296.73 1092.8 -297.41 1092.8 C-302.41 1087.32 -302.41 1087.32 -302.41 1084.8 C-303.07 1084.8 -303.73 1084.8 -304.41 1084.8 C-306.36 1082.68 -306.36 1082.68 -308.54 1079.93 C-309.26 1079.02 -309.99 1078.12 -310.73 1077.18 C-312.41 1074.8 -312.41 1074.8 -312.41 1072.8 C-313.07 1072.8 -313.73 1072.8 -314.41 1072.8 C-317.41 1069.34 -317.41 1069.34 -317.41 1066.8 C-318.07 1066.8 -318.73 1066.8 -319.41 1066.8 C-319.74 1065.48 -320.07 1064.16 -320.41 1062.8 C-321.07 1062.8 -321.73 1062.8 -322.41 1062.8 C-324.32 1060.36 -326.1 1057.91 -327.85 1055.36 C-328.38 1054.6 -328.91 1053.84 -329.46 1053.05 C-334.55 1045.7 -339.42 1038.21 -344.22 1030.66 C-345.28 1029 -346.36 1027.36 -347.45 1025.71 C-351.12 1020.1 -354.25 1014.38 -357.15 1008.33 C-358.42 1005.66 -358.42 1005.66 -360.41 1002.8 C-360.41 1001.81 -360.41 1000.82 -360.41 999.8 C-361.07 999.8 -361.73 999.8 -362.41 999.8 C-363 998.38 -363 998.38 -363.6 996.93 C-364.91 993.87 -366.35 990.9 -367.85 987.93 C-371.7 980.3 -375 972.47 -378.26 964.57 C-379.13 962.49 -380.04 960.42 -380.98 958.36 C-382.74 954 -384.03 949.56 -385.38 945.06 C-386.27 942.25 -387.27 939.58 -388.41 936.86 C-391.66 929.03 -393.82 920.77 -395.6 912.49 C-396.02 909.02 -396.02 909.02 -397.41 907.8 C-397.75 906.39 -398.03 904.97 -398.29 903.55 C-399.07 899.43 -399.99 895.37 -400.98 891.3 C-402.1 886.54 -402.78 881.93 -403.17 877.06 C-403.4 874.9 -403.83 872.95 -404.41 870.86 C-405.56 866.69 -405.87 862.53 -406.17 858.22 C-406.34 855.66 -406.34 855.66 -407.41 852.8 C-407.55 851.38 -407.64 849.95 -407.7 848.53 C-407.73 847.7 -407.77 846.88 -407.81 846.03 C-407.84 845.17 -407.88 844.31 -407.91 843.43 C-407.98 841.73 -408.06 840.03 -408.13 838.34 C-408.16 837.59 -408.19 836.84 -408.22 836.06 C-408.37 833.76 -408.37 833.76 -408.91 831.35 C-412.05 815.39 -410.53 797.21 -410.59 780.95 C-410.6 779.16 -410.61 777.37 -410.62 775.58 C-410.69 766.62 -410.62 758.03 -408.88 749.21 C-408.29 746.18 -408.07 743.19 -407.91 740.11 C-407.61 735.72 -407.08 731.64 -406.02 727.38 C-405.03 723.17 -404.31 718.91 -403.56 714.65 C-402.57 709.22 -401.19 704 -399.35 698.8 C-398.32 695.79 -398.32 695.79 -397.98 692.49 C-397.44 688.96 -396.54 686 -395.37 682.66 C-393.86 678.15 -392.59 673.58 -391.3 669 C-389.99 664.43 -388.31 660.17 -386.41 655.8 C-385.74 653.69 -385.09 651.56 -384.48 649.43 C-383.07 644.72 -381.42 640.33 -379.34 635.89 C-378.43 633.84 -377.72 631.81 -377.04 629.68 C-373.78 619.59 -369.62 609.96 -364.77 600.55 C-363.55 598.08 -362.52 595.63 -361.54 593.05 C-358.98 586.44 -355.69 580.2 -352.47 573.89 C-351.45 571.87 -350.44 569.84 -349.43 567.81 C-343.28 555.38 -337.07 542.94 -329.8 531.11 C-327.78 527.74 -325.93 524.28 -324.07 520.83 C-320.94 515.1 -317.67 509.46 -314.41 503.8 C-313.75 503.8 -313.09 503.8 -312.41 503.8 C-312.23 502.93 -312.23 502.93 -312.04 502.05 C-311.41 499.78 -310.53 497.88 -309.41 495.8 C-308.75 495.8 -308.09 495.8 -307.41 495.8 C-307.3 495.22 -307.18 494.64 -307.06 494.05 C-306.38 491.67 -305.45 489.93 -304.16 487.82 C-303.7 487.08 -303.24 486.33 -302.77 485.56 C-302.28 484.77 -301.79 483.99 -301.29 483.18 C-300.79 482.36 -300.28 481.54 -299.76 480.7 C-296.78 475.9 -293.72 471.19 -290.41 466.6 C-287.58 462.63 -284.85 458.59 -282.1 454.55 C-277.62 447.97 -273.07 441.44 -268.4 434.99 C-266.23 432 -266.23 432 -264.41 428.8 C-263.75 428.8 -263.09 428.8 -262.41 428.8 C-262.21 428.14 -262 427.48 -261.79 426.8 C-259.92 422.73 -257.44 419.11 -254.41 415.8 C-253.75 415.8 -253.09 415.8 -252.41 415.8 C-252.29 415.2 -252.17 414.6 -252.04 413.99 C-251.41 411.8 -251.41 411.8 -249.41 408.8 C-248.75 408.8 -248.09 408.8 -247.41 408.8 C-247.17 408.09 -246.93 407.38 -246.69 406.64 C-245.22 403.37 -243.37 401.09 -241.04 398.36 C-238.51 395.36 -236.06 392.44 -233.98 389.11 C-233.46 388.35 -232.95 387.59 -232.41 386.8 C-231.75 386.8 -231.09 386.8 -230.41 386.8 C-230.1 386.18 -229.8 385.56 -229.48 384.93 C-228.79 383.55 -228.1 382.18 -227.41 380.8 C-226.75 380.8 -226.09 380.8 -225.41 380.8 C-225.15 380.23 -224.88 379.66 -224.6 379.07 C-223.37 376.72 -221.99 374.68 -220.41 372.55 C-219.64 371.49 -219.64 371.49 -218.85 370.41 C-218.38 369.88 -217.9 369.35 -217.41 368.8 C-216.75 368.8 -216.09 368.8 -215.41 368.8 C-215.04 368 -215.04 368 -214.66 367.18 C-213.11 364.22 -211.38 361.5 -209.41 358.8 C-208.75 358.8 -208.09 358.8 -207.41 358.8 C-207 357.92 -207 357.92 -206.57 357.02 C-204.76 353.55 -202.33 350.62 -199.91 347.55 C-199.42 346.9 -198.92 346.25 -198.4 345.58 C-197.12 343.95 -195.77 342.37 -194.41 340.8 C-193.75 340.8 -193.09 340.8 -192.41 340.8 C-192.15 340.06 -191.88 339.32 -191.6 338.55 C-190.46 335.91 -189.32 333.95 -187.41 331.8 C-186.75 331.8 -186.09 331.8 -185.41 331.8 C-185.1 331.18 -184.8 330.56 -184.48 329.93 C-183.79 328.55 -183.1 327.18 -182.41 325.8 C-181.75 325.8 -181.09 325.8 -180.41 325.8 C-180.08 324.48 -179.75 323.16 -179.41 321.8 C-178.75 321.8 -178.09 321.8 -177.41 321.8 C-177.1 321.18 -176.8 320.56 -176.48 319.93 C-175.79 318.55 -175.1 317.18 -174.41 315.8 C-173.75 315.8 -173.09 315.8 -172.41 315.8 C-172.17 315.09 -171.93 314.38 -171.69 313.64 C-170.22 310.37 -168.37 308.09 -166.04 305.36 C-163.51 302.36 -161.06 299.44 -158.98 296.11 C-158.46 295.35 -157.95 294.59 -157.41 293.8 C-156.75 293.8 -156.09 293.8 -155.41 293.8 C-155.14 293.22 -154.86 292.64 -154.57 292.04 C-152.66 288.34 -150.26 284.98 -147.91 281.55 C-147.42 280.81 -146.92 280.06 -146.4 279.29 C-145.92 278.59 -145.44 277.89 -144.95 277.16 C-144.29 276.19 -144.29 276.19 -143.62 275.21 C-143.22 274.74 -142.82 274.28 -142.41 273.8 C-141.75 273.8 -141.09 273.8 -140.41 273.8 C-140.14 273.22 -139.86 272.65 -139.58 272.05 C-137.57 268.17 -135.01 264.65 -132.54 261.05 C-131.96 260.21 -131.39 259.37 -130.8 258.51 C-126.06 251.64 -121.13 244.95 -116.07 238.32 C-112.3 233.35 -108.73 228.4 -105.7 222.94 C-102 216.78 -97.68 210.95 -93.48 205.12 C-89.93 200.17 -86.89 195.15 -84.03 189.76 C-82.16 186.33 -80.19 182.96 -78.16 179.61 C-77.5 178.51 -76.83 177.4 -76.15 176.26 C-75.58 175.45 -75 174.64 -74.41 173.8 C-73.75 173.8 -73.09 173.8 -72.41 173.8 C-72.3 173.23 -72.18 172.66 -72.06 172.08 C-71.36 169.6 -70.37 167.64 -69.12 165.39 C-68.66 164.55 -68.2 163.71 -67.72 162.85 C-67.23 161.97 -66.73 161.08 -66.23 160.18 C-65.47 158.82 -65.47 158.82 -64.7 157.43 C-61.85 152.31 -58.92 147.26 -55.86 142.26 C-48.18 129.24 -40.76 115.43 -35.41 101.28 C-34.2 98.27 -32.81 95.36 -31.41 92.43 C-28.96 87.19 -27.03 81.95 -25.28 76.45 C-24.57 74.26 -23.78 72.21 -22.85 70.11 C-19.54 62.48 -17.59 54.66 -15.77 46.56 C-14.51 40.99 -14.51 40.99 -13.41 38.8 C-12.17 32.43 -11.41 26.05 -11.2 19.57 C-11.17 18.67 -11.14 17.78 -11.11 16.86 C-11.06 15.09 -11.03 13.32 -11.02 11.56 C-10.86 5.43 -10.86 5.43 -8.63 2.27 C-5.56 0.23 -3.64 -0.12 0 0 Z " fill="#000100" transform="translate(644.4140625,23.19921875)"></path>
<path d="M0 0 C1.58 -0.01 1.58 -0.01 3.19 -0.02 C4.35 -0.02 5.51 -0.02 6.71 -0.01 C8.55 -0.02 8.55 -0.02 10.43 -0.03 C13.85 -0.04 17.27 -0.05 20.69 -0.05 C24.38 -0.05 28.06 -0.06 31.75 -0.07 C39.81 -0.09 47.86 -0.1 55.92 -0.11 C60.95 -0.11 65.98 -0.12 71.01 -0.12 C84.93 -0.14 98.85 -0.16 112.77 -0.16 C114.1 -0.16 114.1 -0.16 115.47 -0.16 C117.27 -0.16 119.08 -0.16 120.88 -0.16 C121.78 -0.17 122.68 -0.17 123.6 -0.17 C124.5 -0.17 125.4 -0.17 126.32 -0.17 C140.88 -0.17 155.44 -0.2 169.99 -0.23 C184.93 -0.27 199.86 -0.29 214.8 -0.29 C223.19 -0.29 231.58 -0.3 239.97 -0.33 C247.11 -0.35 254.25 -0.36 261.39 -0.35 C265.04 -0.34 268.69 -0.34 272.33 -0.36 C276.28 -0.39 280.22 -0.37 284.17 -0.35 C285.33 -0.37 286.49 -0.38 287.69 -0.39 C288.74 -0.38 289.79 -0.37 290.88 -0.36 C291.79 -0.36 292.7 -0.36 293.64 -0.36 C295.94 0.26 295.94 0.26 297.73 2.6 C299.22 5.88 299.39 8.43 299.5 12.03 C299.52 12.69 299.55 13.35 299.57 14.03 C299.64 16.21 299.68 18.39 299.72 20.57 C299.74 21.32 299.75 22.07 299.77 22.84 C299.84 26.82 299.9 30.8 299.93 34.78 C299.97 38.04 300.05 41.31 300.16 44.57 C301.18 74.6 301.18 74.6 294.06 82.51 C291.69 84.65 289.28 86.51 286.58 88.21 C284.4 89.61 282.57 91.3 280.69 93.07 C279.44 94.14 278.19 95.2 276.94 96.26 C270.33 102.09 263.88 108.08 257.47 114.12 C254.36 117.04 251.22 119.91 248 122.7 C243.77 126.38 239.69 130.21 235.63 134.07 C227.24 142 218.79 149.84 210.06 157.39 C208.37 158.87 206.72 160.39 205.07 161.91 C204.32 162.6 204.32 162.6 203.56 163.31 C202.13 164.64 200.69 165.98 199.26 167.32 C196.94 169.26 196.94 169.26 194.94 169.26 C194.94 169.92 194.94 170.58 194.94 171.26 C195.53 171.35 196.12 171.44 196.73 171.53 C210.86 173.72 224.41 176.62 237.94 181.26 C238.61 181.49 239.29 181.72 239.98 181.95 C256.27 187.62 270.34 196.59 282.94 208.26 C283.76 209.01 284.58 209.76 285.42 210.53 C307.24 231.37 319.14 260.33 319.94 290.26 C319.97 291.26 320 292.27 320.02 293.3 C320.06 296.29 320.02 299.27 319.94 302.26 C319.91 303.31 319.88 304.37 319.85 305.45 C318.42 334.94 306.92 361.84 287.94 384.26 C286.89 385.51 286.89 385.51 285.82 386.79 C255.9 421.35 208.35 436.72 164.03 439.95 C143.99 441.13 123.87 440.66 103.94 438.26 C103.11 438.16 102.29 438.07 101.44 437.97 C69.76 434.12 39.83 424.61 10.94 411.26 C10.2 410.93 9.47 410.59 8.71 410.25 C-5.09 403.94 -20.15 395.91 -31.06 385.26 C-32.41 381.22 -31.91 379.07 -30.07 375.3 C-29.62 374.36 -29.16 373.42 -28.7 372.46 C-28.2 371.46 -27.7 370.47 -27.19 369.45 C-26.68 368.42 -26.18 367.39 -25.66 366.33 C-22.39 359.73 -18.94 353.27 -15.26 346.89 C-12.76 342.55 -10.45 338.14 -8.25 333.64 C-4.92 326.85 -1.37 320.2 2.25 313.57 C2.77 312.63 3.28 311.68 3.81 310.71 C6.55 305.73 6.55 305.73 7.94 303.26 C8.43 302.38 8.91 301.5 9.42 300.59 C10.94 298.26 10.94 298.26 13.94 296.26 C17.5 295.82 19.34 295.9 22.45 297.77 C23.31 298.49 24.17 299.21 25.06 299.95 C54.09 322.93 89.48 339.09 126.94 340.26 C128.09 340.3 129.24 340.34 130.43 340.38 C148.09 340.69 168.83 339.12 182.94 327.26 C183.57 326.74 184.2 326.21 184.86 325.67 C192.22 318.98 195.61 310.77 196.11 300.93 C196.18 287.19 194.03 278.72 185.04 267.99 C166.19 249.07 131.73 252.88 107.4 252.83 C103.62 252.82 99.85 252.82 96.07 252.82 C90.47 252.83 84.87 252.81 79.27 252.77 C76.67 252.76 74.07 252.78 71.47 252.79 C69.88 252.78 68.29 252.77 66.7 252.76 C65.98 252.77 65.27 252.78 64.53 252.79 C61.13 252.74 58.99 252.29 56 250.63 C53.34 247.57 53.28 245.92 53.23 241.91 C53.2 240.62 53.17 239.33 53.14 238 C53.14 236.59 53.13 235.19 53.13 233.78 C53.12 232.33 53.11 230.88 53.09 229.43 C53.07 226.39 53.06 223.35 53.07 220.31 C53.07 216.43 53.02 212.56 52.94 208.69 C52.89 205.69 52.89 202.7 52.89 199.7 C52.89 198.27 52.87 196.84 52.83 195.42 C52.67 187.64 53.02 182.44 58.33 176.49 C59.84 175.05 61.37 173.64 62.94 172.26 C63.88 171.3 64.81 170.33 65.72 169.34 C66.48 168.59 67.23 167.84 68 167.07 C69.13 165.94 69.13 165.94 70.29 164.78 C72.35 162.82 74.43 160.96 76.59 159.12 C81.8 154.59 86.6 149.67 91.44 144.76 C96.85 139.27 102.26 133.87 108.12 128.86 C111.04 126.3 113.73 123.53 116.44 120.76 C120.56 116.58 124.74 112.56 129.22 108.76 C131.93 106.4 134.42 103.84 136.94 101.26 C135.21 99.53 132.89 100.13 130.54 100.12 C129.36 100.12 128.19 100.11 126.98 100.11 C125.69 100.1 124.39 100.1 123.05 100.1 C121.68 100.1 120.31 100.09 118.94 100.09 C115.98 100.08 113.02 100.07 110.06 100.06 C105.38 100.05 100.7 100.03 96.02 100.01 C82.7 99.95 69.39 99.89 56.08 99.86 C48.73 99.84 41.38 99.81 34.03 99.77 C30.14 99.75 26.25 99.73 22.36 99.73 C18.7 99.73 15.04 99.71 11.38 99.69 C9.4 99.68 7.42 99.68 5.43 99.69 C3.66 99.67 3.66 99.67 1.85 99.65 C0.82 99.65 -0.21 99.65 -1.26 99.64 C-4.52 99.2 -6.42 98.18 -9.06 96.26 C-10.8 92.63 -10.21 88.16 -10.21 84.19 C-10.21 83.38 -10.21 82.57 -10.22 81.73 C-10.23 79.06 -10.23 76.38 -10.23 73.71 C-10.23 71.84 -10.24 69.98 -10.24 68.12 C-10.25 64.21 -10.25 60.3 -10.25 56.4 C-10.25 51.4 -10.26 46.4 -10.28 41.4 C-10.29 37.55 -10.29 33.71 -10.29 29.86 C-10.29 28.01 -10.3 26.17 -10.3 24.33 C-10.31 21.75 -10.31 19.17 -10.3 16.59 C-10.31 15.83 -10.32 15.07 -10.32 14.29 C-10.3 9.91 -9.87 6.27 -8.06 2.26 C-4.77 0.07 -3.82 0.01 0 0 Z M5.94 15.26 C5.89 23.96 5.86 32.66 5.83 41.36 C5.82 45.4 5.81 49.44 5.79 53.48 C5.77 57.38 5.75 61.28 5.75 65.17 C5.74 66.66 5.74 68.15 5.73 69.64 C5.71 71.72 5.71 73.8 5.71 75.88 C5.7 77.66 5.7 77.66 5.7 79.48 C5.65 82.4 5.65 82.4 7.94 84.26 C10.71 84.57 10.71 84.57 14.01 84.52 C15.3 84.53 16.59 84.53 17.93 84.54 C19.37 84.54 20.81 84.53 22.25 84.53 C23.77 84.54 25.28 84.54 26.79 84.55 C30.05 84.56 33.32 84.56 36.58 84.57 C41.73 84.57 46.89 84.58 52.04 84.61 C64.85 84.66 77.65 84.69 90.46 84.71 C100.41 84.72 110.36 84.75 120.31 84.79 C125.43 84.81 130.56 84.82 135.69 84.82 C138.88 84.82 142.06 84.83 145.25 84.85 C146.73 84.86 148.21 84.86 149.69 84.85 C151.71 84.85 153.73 84.86 155.74 84.87 C157.44 84.88 157.44 84.88 159.17 84.88 C161.94 85.26 161.94 85.26 163.79 86.57 C165.78 89.51 165.41 91.84 164.94 95.26 C162.73 97.66 162.73 97.66 159.94 100.26 C158.19 102.02 156.45 103.78 154.7 105.53 C153.19 107.05 151.68 108.56 150.17 110.08 C149.15 111.11 148.12 112.15 147.09 113.18 C141.81 118.5 136.51 123.73 130.81 128.61 C127.35 131.66 124.16 134.97 120.94 138.26 C117.13 142.15 113.33 145.98 109.19 149.51 C103.47 154.44 98.24 159.89 92.94 165.26 C90.86 167.37 88.78 169.47 86.69 171.57 C86.19 172.07 85.69 172.58 85.18 173.1 C81.81 176.46 78.33 179.64 74.66 182.66 C70.76 186.28 68.73 188.6 68.45 194.02 C68.44 195.93 68.45 197.83 68.48 199.74 C68.48 200.75 68.48 201.76 68.48 202.8 C68.49 204.93 68.5 207.05 68.53 209.18 C68.56 212.45 68.57 215.71 68.57 218.98 C68.58 221.04 68.59 223.11 68.6 225.18 C68.6 226.16 68.61 227.14 68.61 228.15 C68.62 229.05 68.63 229.96 68.65 230.89 C68.66 231.69 68.66 232.49 68.67 233.31 C68.77 235.49 68.77 235.49 70.94 237.26 C74.06 237.57 74.06 237.57 77.79 237.52 C78.5 237.52 79.21 237.52 79.93 237.53 C81.47 237.53 83.01 237.54 84.55 237.53 C87.01 237.53 89.47 237.55 91.93 237.56 C98.93 237.61 105.92 237.63 112.92 237.64 C176.25 237.73 176.25 237.73 195.94 256.26 C207.04 268.52 211.12 280.86 211.13 297.07 C211.14 298.02 211.15 298.97 211.16 299.94 C211.19 313.88 206.95 325.98 197.2 336.23 C176.33 354.97 147.5 356.34 120.94 355.26 C86.39 352.89 51.68 339.31 24.1 318.37 C23.06 317.67 22.01 316.98 20.94 316.26 C16.91 317.6 16.18 320.04 14.38 323.64 C13.66 325.02 12.95 326.4 12.23 327.78 C11.86 328.52 11.48 329.25 11.1 330.01 C9.56 333 7.99 335.97 6.41 338.94 C4.72 342.15 3.03 345.36 1.35 348.57 C0.35 350.47 -0.65 352.37 -1.65 354.27 C-3.29 357.39 -4.92 360.51 -6.56 363.64 C-7.08 364.62 -7.59 365.6 -8.13 366.61 C-8.61 367.53 -9.09 368.46 -9.59 369.41 C-10.24 370.63 -10.24 370.63 -10.89 371.88 C-12.08 374.3 -13.09 376.75 -14.06 379.26 C-10.41 381.61 -6.74 383.94 -3.06 386.26 C-2.31 386.75 -1.55 387.24 -0.77 387.74 C55.69 423.26 132.27 433.69 196.9 419.62 C209.92 416.58 221.95 412.15 233.94 406.26 C234.62 405.93 235.31 405.6 236.01 405.26 C246.23 400.28 255.25 393.54 263.94 386.26 C264.68 385.67 265.41 385.08 266.17 384.47 C287.24 366.91 300.76 339.14 303.94 312.26 C304.19 307.67 304.27 303.1 304.25 298.51 C304.25 296.46 304.27 294.41 304.3 292.37 C304.37 278.18 301.68 265.32 295.94 252.26 C295.51 251.26 295.08 250.27 294.63 249.24 C282.86 223.86 259.81 206.16 234.13 196.38 C221.66 191.87 208.96 189.21 195.94 186.81 C191.31 185.96 186.68 185.06 182.06 184.14 C180.89 183.92 180.89 183.92 179.69 183.69 C172.99 182.34 172.99 182.34 170.94 179.26 C170.31 176.57 170.31 176.57 170.94 173.26 C174.67 167.6 180.1 163.19 185.14 158.74 C188.24 155.99 191.28 153.2 194.31 150.39 C195.42 149.36 196.53 148.33 197.65 147.3 C198.19 146.8 198.74 146.29 199.31 145.77 C201.87 143.4 204.43 141.05 207 138.7 C207.49 138.25 207.98 137.8 208.49 137.33 C210.47 135.52 212.44 133.71 214.42 131.91 C215.9 130.54 217.39 129.18 218.88 127.82 C219.37 127.37 219.86 126.92 220.36 126.46 C223.55 123.54 226.73 120.61 229.9 117.68 C235.01 112.94 240.16 108.25 245.35 103.6 C249.48 99.87 253.56 96.08 257.64 92.31 C260.78 89.41 263.92 86.52 267.06 83.64 C268.43 82.38 269.8 81.12 271.12 79.82 C272.94 78.26 272.94 78.26 275.73 76.63 C280.28 73.57 283.34 71.03 284.51 65.61 C285.33 57.63 284.94 49.63 284.63 41.64 C284.57 39.18 284.52 36.72 284.48 34.26 C284.35 28.25 284.17 22.26 283.94 16.26 C281.54 15.06 280.06 15.14 277.38 15.14 C276.42 15.14 275.45 15.13 274.46 15.13 C273.39 15.13 272.32 15.14 271.22 15.14 C270.09 15.14 268.96 15.14 267.8 15.14 C263.99 15.14 260.18 15.14 256.38 15.15 C253.66 15.15 250.94 15.15 248.22 15.15 C242.35 15.15 236.48 15.15 230.61 15.15 C222.13 15.16 213.64 15.17 205.16 15.17 C191.4 15.17 177.63 15.18 163.87 15.18 C150.49 15.19 137.12 15.2 123.75 15.21 C122.51 15.21 122.51 15.21 121.25 15.21 C117.12 15.21 112.99 15.21 108.85 15.21 C74.55 15.22 40.24 15.24 5.94 15.26 Z " fill="#000100" transform="translate(531.0615921020508,642.7399377822876)"></path>
<path d="M0 0 C13.93 25.61 14.21 67.44 17 96 C17.08 96.73 17.16 97.46 17.24 98.21 C17.87 104.21 18.29 110.19 18.55 116.22 C18.6 117.17 18.64 118.11 18.68 119.09 C19.07 128.62 19.15 138.14 19.13 147.68 C19.13 150.5 19.13 153.32 19.14 156.14 C19.14 173.6 18.7 191.08 16.75 208.44 C16.62 209.59 16.49 210.75 16.36 211.94 C13.71 234.91 9.73 257.59 4 280 C3.74 281.02 3.48 282.04 3.21 283.1 C-9.38 331.87 -30.4 379.46 -61.63 419.24 C-63 421 -64.34 422.77 -65.68 424.55 C-69.89 430.12 -74.2 435.55 -78.92 440.71 C-80.09 442 -81.26 443.31 -82.4 444.64 C-87.27 450.32 -92.46 455.65 -97.75 460.94 C-99.24 462.43 -100.72 463.92 -102.2 465.42 C-108.47 471.73 -115.02 477.46 -122 483 C-123.29 484.07 -124.58 485.15 -125.87 486.23 C-181.42 532.48 -247.54 558.55 -319 567 C-320.35 567.17 -320.35 567.17 -321.72 567.34 C-337.19 569.27 -352.77 569.39 -368.33 569.66 C-370.13 569.69 -371.92 569.72 -373.71 569.75 C-375.01 569.78 -375.01 569.78 -376.35 569.8 C-383.38 569.95 -390.37 570.34 -397.39 570.84 C-402.32 571.06 -407.11 570.69 -412 570 C-412 569.67 -412 569.34 -412 569 C-410.93 568.94 -409.86 568.88 -408.75 568.82 C-407.36 568.73 -405.96 568.65 -404.56 568.56 C-403.86 568.52 -403.15 568.48 -402.42 568.44 C-398.91 568.52 -398.91 568.52 -396 567 C-394.08 566.74 -392.15 566.53 -390.23 566.35 C-388.42 566.18 -388.42 566.18 -386.57 566 C-385.27 565.88 -383.97 565.75 -382.62 565.62 C-293.83 556.8 -207.24 521.19 -139.62 453.88 C-137.68 451.93 -135.73 449.99 -133.77 448.04 C-126.72 441 -120.15 433.85 -114 426 C-112.99 424.77 -111.97 423.54 -110.95 422.31 C-55.7 354.95 -26.96 269.46 -9 161 C-8.91 160.35 -8.82 159.69 -8.73 159.02 C-5.27 133.78 -3.43 108.43 -2 83 C-1.93 81.7 -1.85 80.4 -1.78 79.06 C-0.72 59.12 -0.93 39.15 -1.04 19.19 C-1.04 18.07 -1.05 16.95 -1.05 15.8 C-1.06 13.67 -1.07 11.54 -1.09 9.41 C-1.09 8.47 -1.09 7.52 -1.1 6.54 C-1.11 5.29 -1.11 5.29 -1.11 4.02 C-1 2 -1 2 0 0 Z " fill="#FBFDFD" transform="translate(1029,644)"></path>
<path d="M0 0 C2.89 2.61 4.67 5.25 6.7 8.57 C7.37 9.66 8.04 10.75 8.74 11.88 C15.56 24.93 15.19 43.32 11.51 57.26 C7.32 67.92 2.22 76.48 -8.4 81.44 C-9.09 81.71 -9.78 81.98 -10.49 82.26 C-11.31 82.62 -12.14 82.97 -12.98 83.34 C-24.7 86.42 -40.81 86.25 -51.83 80.92 C-61.67 74.78 -66.37 68.47 -69.49 57.26 C-73.1 41.32 -71.5 23.4 -63.24 9.26 C-56.54 -0.38 -46.79 -5.09 -35.35 -7.36 C-23.14 -8.96 -10.23 -7.13 0 0 Z " fill="#000100" transform="translate(509.4921875,488.73828125)"></path>
<path d="M0 0 C2.7 1.8 4.54 3.08 6 6 C5.96 7.92 5.85 9.84 5.69 11.75 C5.61 12.78 5.53 13.8 5.45 14.86 C4.98 18.12 4.05 20.88 3 24 C2.25 27.17 1.62 30.36 1 33.56 C0.74 34.88 0.74 34.88 0.47 36.23 C-0.73 42.36 -1.76 48.48 -2.61 54.66 C-3 57 -3 57 -4 59 C-4.37 61.65 -4.7 64.28 -5 66.94 C-5.87 74.6 -5.87 74.6 -7 78 C-7.2 80.48 -7.37 82.95 -7.5 85.44 C-7.87 92.47 -7.87 92.47 -8.5 94.96 C-9.02 97.07 -9.2 98.99 -9.31 101.15 C-9.35 101.97 -9.39 102.78 -9.44 103.62 C-9.5 104.93 -9.5 104.93 -9.55 106.27 C-9.6 107.2 -9.64 108.12 -9.68 109.07 C-10.09 118.92 -10.15 128.77 -10.13 138.62 C-10.12 141.63 -10.13 144.64 -10.14 147.65 C-10.14 157.01 -10.03 166.36 -9.55 175.71 C-9.52 176.49 -9.48 177.28 -9.44 178.08 C-9.24 181.52 -8.85 184.68 -8 188 C-7.83 190.04 -7.68 192.08 -7.56 194.12 C-7.22 198.88 -6.62 203.38 -5.59 208.02 C-4.95 211.26 -4.47 214.5 -3.99 217.76 C-2.84 225.55 -1.35 232.98 0.96 240.52 C2.13 244.43 3.1 248.35 4.06 252.31 C5.77 259.25 7.68 265.93 10.5 272.5 C11.58 275.02 12.48 277.4 13.31 280 C16.98 291.16 21.6 301.58 27.27 311.86 C27.84 312.89 28.41 313.93 29 315 C29.41 315.72 29.81 316.44 30.23 317.18 C31.61 320.47 31.15 323.73 30 327 C27.12 329.68 25.42 331 21.44 331 C9.63 326.16 4.75 309.53 0.15 298.64 C-0.91 296.1 -1.96 293.55 -3 291 C-3.51 289.77 -3.51 289.77 -4.03 288.51 C-6.46 282.54 -8.6 276.5 -10.62 270.38 C-10.92 269.49 -11.22 268.6 -11.53 267.68 C-13.26 262.49 -14.73 257.32 -16 252 C-16.49 250.21 -16.99 248.41 -17.5 246.62 C-19.77 238.33 -21.21 229.96 -22.54 221.47 C-22.88 219.01 -22.88 219.01 -24 217 C-24.18 215.17 -24.32 213.34 -24.44 211.5 C-24.72 207.75 -25.1 204.17 -25.94 200.5 C-29.87 181.72 -29.28 162.41 -29.2 143.32 C-29.18 140.28 -29.19 137.23 -29.19 134.19 C-29.19 131.24 -29.18 128.29 -29.17 125.34 C-29.17 123.94 -29.17 122.54 -29.17 121.14 C-29.16 119.2 -29.16 117.25 -29.15 115.31 C-29.14 114.21 -29.14 113.11 -29.13 111.97 C-29.01 109.2 -28.61 106.7 -28 104 C-27.82 102.35 -27.67 100.7 -27.54 99.04 C-27.46 98.1 -27.38 97.16 -27.3 96.2 C-27.22 95.2 -27.14 94.21 -27.06 93.19 C-26 80.58 -24.6 68.1 -22.44 55.62 C-22.31 54.89 -22.18 54.16 -22.05 53.4 C-21.13 48.25 -21.13 48.25 -20 46 C-19.9 44.78 -19.79 43.57 -19.69 42.31 C-19.19 37.34 -17.93 32.68 -16.58 27.88 C-15.04 22.32 -13.87 16.71 -12.81 11.02 C-10.92 3.96 -7.75 -1.08 0 0 Z " fill="#000100" transform="translate(211,687)"></path>
<path d="M0 0 C0.86 -0.01 1.71 -0.02 2.59 -0.04 C3.42 -0.04 4.26 -0.04 5.11 -0.04 C5.87 -0.05 6.63 -0.05 7.41 -0.06 C10.2 0.24 12.2 0.87 14.69 2.19 C19.37 8.57 21.53 17.06 24 24.5 C26.92 33.11 29.91 41.68 33.12 50.19 C33.45 51.07 33.78 51.95 34.12 52.86 C34.43 53.67 34.74 54.48 35.06 55.31 C35.33 56.02 35.59 56.72 35.87 57.45 C36.66 59.39 36.66 59.39 38.69 61.19 C39.15 59.95 39.6 58.72 40.08 57.45 C41.8 52.81 43.52 48.17 45.25 43.53 C45.99 41.53 46.73 39.54 47.47 37.54 C49.24 32.78 51.01 28.03 52.79 23.28 C53.94 20.2 55.08 17.12 56.18 14.03 C56.81 12.31 56.81 12.31 57.46 10.54 C57.8 9.58 58.14 8.63 58.5 7.64 C60.16 4.21 62.04 1.79 65.69 0.45 C69.16 -0.01 72.63 -0.12 76.12 -0.19 C76.88 -0.22 77.63 -0.26 78.4 -0.3 C79.13 -0.31 79.87 -0.32 80.62 -0.34 C81.28 -0.36 81.94 -0.38 82.62 -0.4 C86.03 0.57 87.49 2.47 89.69 5.19 C90.16 8.11 90.33 10.44 90.27 13.36 C90.27 14.17 90.28 14.98 90.28 15.81 C90.28 18.47 90.25 21.13 90.21 23.8 C90.2 25.65 90.2 27.5 90.2 29.35 C90.19 33.22 90.16 37.1 90.12 40.97 C90.07 45.95 90.04 50.92 90.03 55.9 C90.01 60.64 89.99 65.37 89.96 70.11 C89.96 71.02 89.95 71.93 89.95 72.86 C89.93 75.42 89.91 77.98 89.88 80.53 C89.88 81.3 89.87 82.06 89.87 82.85 C89.8 88.07 89.8 88.07 88.69 89.19 C86.38 89.31 84.06 89.36 81.75 89.38 C80.48 89.39 79.22 89.4 77.91 89.42 C74.69 89.19 74.69 89.19 72.69 87.19 C72.41 84.48 72.41 84.48 72.37 80.99 C72.35 79.69 72.33 78.39 72.31 77.05 C72.3 75.62 72.28 74.2 72.27 72.77 C72.25 71.32 72.24 69.86 72.21 68.41 C72.16 64.58 72.12 60.75 72.09 56.92 C72.05 53.01 72 49.1 71.95 45.2 C71.85 37.53 71.76 29.86 71.69 22.19 C69.32 24.56 68.76 26.37 67.66 29.52 C67.07 31.19 67.07 31.19 66.46 32.9 C66.04 34.11 65.62 35.32 65.19 36.56 C64.52 38.46 63.85 40.35 63.18 42.25 C62.48 44.23 61.79 46.2 61.09 48.19 C59.27 53.37 57.45 58.55 55.61 63.73 C54.76 66.1 53.92 68.48 53.09 70.86 C50.87 77.1 48.5 83.19 45.69 89.19 C43.27 89.3 40.86 89.37 38.44 89.44 C37.76 89.47 37.07 89.5 36.37 89.54 C33.11 89.6 31.18 89.58 28.59 87.5 C26.49 84.95 25.59 82.88 24.55 79.75 C24.19 78.66 23.82 77.57 23.44 76.45 C23.06 75.28 22.68 74.11 22.28 72.9 C21.66 71.04 21.04 69.19 20.42 67.33 C19.55 64.74 18.69 62.14 17.84 59.54 C16.35 55.01 14.84 50.49 13.33 45.97 C12.52 43.57 11.73 41.16 10.93 38.76 C10.57 37.65 10.2 36.54 9.82 35.4 C9.51 34.44 9.19 33.48 8.86 32.49 C7.27 28.01 5.45 23.6 3.69 19.19 C3.36 42.29 3.03 65.39 2.69 89.19 C-2.26 89.19 -7.21 89.19 -12.31 89.19 C-14.8 86.7 -14.56 85.25 -14.59 81.85 C-14.59 81.11 -14.59 80.37 -14.59 79.6 C-14.59 78.82 -14.6 78.04 -14.6 77.23 C-14.62 74.64 -14.62 72.04 -14.61 69.45 C-14.62 67.65 -14.62 65.85 -14.63 64.05 C-14.63 60.27 -14.63 56.48 -14.63 52.7 C-14.62 47.86 -14.64 43.02 -14.66 38.18 C-14.68 34.46 -14.68 30.73 -14.68 27.01 C-14.68 25.23 -14.68 23.44 -14.69 21.66 C-14.7 19.16 -14.7 16.66 -14.68 14.16 C-14.69 13.42 -14.7 12.69 -14.71 11.93 C-14.66 7.52 -14.03 4.7 -11.31 1.19 C-7.82 -0.56 -3.85 0 0 0 Z " fill="#000100" transform="translate(552.3125,482.8125)"></path>
<path d="M0 0 C0.83 -0 1.67 -0.01 2.53 -0.01 C3.83 0.01 3.83 0.01 5.16 0.02 C6.02 0.01 6.89 0 7.79 -0.01 C9.04 -0.01 9.04 -0.01 10.31 0 C11.45 0.01 11.45 0.01 12.62 0.01 C15.23 0.51 15.95 1.4 17.66 3.4 C18.5 5.19 18.5 5.19 19.18 7.21 C19.44 7.97 19.7 8.74 19.97 9.53 C20.24 10.36 20.52 11.2 20.8 12.05 C21.42 13.88 22.04 15.7 22.66 17.52 C22.98 18.48 23.31 19.44 23.64 20.43 C25.35 25.44 27.14 30.44 28.92 35.43 C29.65 37.5 30.39 39.57 31.12 41.63 C32.24 44.78 33.36 47.93 34.48 51.08 C36.59 57.03 38.7 62.99 40.79 68.94 C41.54 71.07 42.3 73.2 43.06 75.32 C43.43 76.37 43.8 77.42 44.18 78.49 C44.47 79.32 44.77 80.16 45.07 81.01 C45.77 83.87 45.76 86.47 45.66 89.4 C43.05 89.45 40.45 89.49 37.84 89.52 C37.11 89.54 36.37 89.56 35.61 89.57 C31.74 89.61 29.95 89.59 26.66 87.4 C25.48 84.73 24.44 82.14 23.47 79.4 C23.2 78.66 22.92 77.92 22.64 77.16 C20.66 71.71 20.66 71.71 20.66 69.4 C9.77 69.4 -1.12 69.4 -12.34 69.4 C-13.33 73.36 -14.32 77.32 -15.34 81.4 C-16.3 84.08 -17.28 86.76 -18.34 89.4 C-20.8 89.45 -23.26 89.49 -25.72 89.52 C-26.42 89.54 -27.12 89.56 -27.84 89.57 C-29.67 89.59 -31.51 89.5 -33.34 89.4 C-34 88.74 -34.66 88.08 -35.34 87.4 C-34.89 81.15 -32.29 74.86 -30.25 68.98 C-29.95 68.1 -29.65 67.22 -29.34 66.31 C-28.37 63.47 -27.39 60.62 -26.41 57.77 C-25.73 55.81 -25.05 53.84 -24.38 51.87 C-22.69 46.96 -21 42.06 -19.3 37.16 C-18.4 34.56 -17.5 31.96 -16.61 29.36 C-15.35 25.68 -14.07 22 -12.79 18.33 C-12.33 17.01 -11.87 15.69 -11.42 14.36 C-10.79 12.55 -10.15 10.74 -9.52 8.93 C-8.99 7.42 -8.99 7.42 -8.46 5.89 C-6.5 1.51 -4.83 0.02 0 0 Z " fill="#000100" transform="translate(845.34375,482.6015625)"></path>
<path d="M0 0 C2.35 3.53 2.21 5.03 2.12 9.19 C2.11 10.27 2.09 11.36 2.07 12.48 C2.05 13.31 2.02 14.14 2 15 C-1.88 16.29 -2.91 15.38 -6.56 13.69 C-17.24 9.08 -27.49 7.31 -38.69 11.5 C-45.4 14.85 -50.48 20.56 -53 27.62 C-55.45 37.94 -55.46 49.67 -50 59 C-45.8 64.06 -40.54 67.85 -34 69 C-25.38 69.58 -25.38 69.58 -17 68 C-17 61.4 -17 54.8 -17 48 C-22.13 47.83 -22.13 47.83 -27.26 47.7 C-30.5 47.55 -32.53 47.4 -35.03 45.25 C-36.18 42.58 -36.15 41.1 -35.69 38.25 C-35.57 37.45 -35.45 36.65 -35.32 35.83 C-35.22 35.22 -35.11 34.62 -35 34 C-31.49 32.92 -28.25 32.87 -24.59 32.87 C-23.35 32.87 -22.12 32.86 -20.84 32.86 C-18.91 32.87 -18.91 32.87 -16.94 32.88 C-15.65 32.87 -14.35 32.87 -13.02 32.86 C-11.79 32.86 -10.55 32.87 -9.28 32.87 C-8.15 32.87 -7.01 32.87 -5.85 32.87 C-3 33 -3 33 0 34 C1.75 36.7 2.26 38.88 2.31 42.06 C2.32 42.85 2.34 43.64 2.35 44.45 C2.36 45.29 2.37 46.13 2.37 47 C2.38 47.87 2.39 48.75 2.4 49.64 C2.41 51.49 2.42 53.33 2.43 55.17 C2.44 57.99 2.49 60.81 2.54 63.62 C2.55 65.42 2.55 67.21 2.56 69 C2.58 69.84 2.6 70.68 2.62 71.55 C2.57 77.36 2.57 77.36 -0.19 80.45 C-8.63 85.09 -18.12 85.5 -27.56 85.44 C-28.61 85.46 -29.65 85.48 -30.73 85.5 C-42.8 85.49 -53.8 81.13 -63 73.29 C-72.17 63.89 -74.29 50.92 -74.15 38.3 C-73.62 26.53 -69.59 13.42 -61 5 C-44.08 -8.38 -18.78 -11.79 0 0 Z " fill="#000100" transform="translate(797,488)"></path>
<path d="M0 0 C0.91 -0.01 1.83 -0.01 2.77 -0.02 C3.76 -0.02 4.75 -0.02 5.77 -0.02 C6.78 -0.03 7.8 -0.03 8.84 -0.03 C10.99 -0.04 13.13 -0.04 15.28 -0.04 C18.57 -0.04 21.86 -0.06 25.15 -0.08 C27.23 -0.08 29.31 -0.08 31.39 -0.09 C32.38 -0.09 33.37 -0.1 34.39 -0.11 C35.31 -0.1 36.22 -0.1 37.16 -0.1 C38.37 -0.1 38.37 -0.1 39.61 -0.1 C41.58 0.15 41.58 0.15 43.58 2.15 C43.78 4.97 43.78 4.97 43.71 8.27 C43.69 9.37 43.67 10.46 43.65 11.59 C43.63 12.43 43.61 13.28 43.58 14.15 C42.14 14.18 42.14 14.18 40.66 14.22 C37.1 14.32 33.53 14.42 29.97 14.52 C28.42 14.56 26.87 14.6 25.33 14.64 C23.11 14.7 20.9 14.76 18.68 14.83 C17.98 14.85 17.29 14.86 16.57 14.88 C13.29 14.71 13.29 14.71 10.58 16.15 C10.48 17.48 10.45 18.81 10.45 20.15 C10.45 20.95 10.45 21.75 10.45 22.58 C10.45 23.85 10.45 23.85 10.46 25.15 C10.45 25.99 10.45 26.84 10.45 27.71 C10.45 28.91 10.45 28.91 10.45 30.15 C10.45 30.89 10.45 31.63 10.45 32.4 C10.39 34.17 10.39 34.17 11.58 35.15 C13.48 35.27 15.39 35.32 17.3 35.36 C18.46 35.38 19.62 35.41 20.81 35.44 C23.28 35.49 25.75 35.54 28.21 35.57 C29.96 35.62 29.96 35.62 31.73 35.67 C32.81 35.69 33.88 35.71 34.98 35.73 C35.84 35.87 36.7 36 37.58 36.15 C39.69 39.31 39.83 40.14 39.77 43.77 C39.76 44.57 39.76 45.36 39.75 46.18 C39.58 48.15 39.58 48.15 38.58 49.15 C36.51 49.3 34.44 49.4 32.36 49.46 C31.1 49.5 29.84 49.55 28.54 49.59 C27.2 49.63 25.86 49.67 24.52 49.71 C23.18 49.75 21.83 49.79 20.49 49.84 C17.19 49.95 13.88 50.05 10.58 50.15 C10.55 53.96 10.54 57.77 10.52 61.58 C10.51 62.67 10.5 63.76 10.49 64.88 C10.49 65.92 10.49 66.95 10.48 68.02 C10.48 68.97 10.47 69.93 10.47 70.92 C10.33 73.12 10.33 73.12 11.58 74.15 C13.85 74.27 16.12 74.33 18.39 74.36 C19.79 74.38 21.19 74.41 22.59 74.44 C24.81 74.48 27.02 74.52 29.24 74.55 C31.37 74.57 33.51 74.62 35.64 74.67 C36.92 74.69 38.2 74.71 39.53 74.73 C40.53 74.87 41.54 75 42.58 75.15 C44.69 78.3 44.83 79.1 44.77 82.71 C44.76 83.49 44.76 84.28 44.75 85.09 C44.58 87.15 44.58 87.15 43.58 89.15 C36.82 89.25 30.06 89.32 23.29 89.36 C20.99 89.39 18.69 89.41 16.39 89.45 C13.09 89.5 9.78 89.52 6.47 89.54 C5.44 89.56 4.41 89.58 3.35 89.6 C2.39 89.6 1.43 89.6 0.44 89.6 C-0.4 89.61 -1.25 89.62 -2.11 89.63 C-5.4 88.94 -6.49 87.89 -8.42 85.15 C-8.8 82.43 -8.95 80.12 -8.9 77.41 C-8.91 76.64 -8.91 75.86 -8.92 75.06 C-8.92 72.51 -8.9 69.95 -8.88 67.4 C-8.88 65.62 -8.88 63.84 -8.88 62.06 C-8.87 58.33 -8.86 54.61 -8.83 50.88 C-8.8 46.11 -8.79 41.33 -8.79 36.56 C-8.79 32.89 -8.78 29.22 -8.76 25.54 C-8.76 23.78 -8.75 22.02 -8.75 20.26 C-8.75 17.8 -8.73 15.34 -8.71 12.88 C-8.71 12.15 -8.71 11.42 -8.71 10.68 C-8.67 7.04 -8.55 4.18 -6.42 1.15 C-4.06 -0.03 -2.63 0.01 0 0 Z " fill="#000100" transform="translate(669.41796875,482.854736328125)"></path>
<path d="M0 0 C2.19 2.38 2.19 2.38 4 5 C4.54 5.74 5.07 6.49 5.62 7.25 C10.98 17.96 10.65 33.42 6.97 44.7 C4.12 51.44 0.58 54.89 -6 58 C-11.84 60.19 -18.02 59.21 -23.72 57.09 C-28.69 54.71 -32.56 51.72 -35.16 46.8 C-38.97 35.46 -38.86 19.5 -34.38 8.42 C-31.01 2.51 -26.43 -0.77 -20.06 -3 C-12.88 -4.79 -6.28 -4.09 0 0 Z " fill="#91AE4A" transform="translate(495,500)"></path>
<path d="M0 0 C1.8 3.82 1.61 6.67 0.23 10.65 C-0.47 12.39 -1.19 14.13 -1.93 15.85 C-3.04 18.38 -3.04 18.38 -4 21.62 C-5.03 24.5 -5.66 26.2 -7.94 28.25 C-11.53 29.3 -14.72 29.63 -18.31 28.5 C-19.94 27.25 -19.94 27.25 -21.94 24.25 C-22.37 18.97 -21.41 14.57 -19.69 9.62 C-19.48 8.98 -19.28 8.34 -19.07 7.68 C-17.52 3.11 -15.58 -1.38 -11.12 -3.69 C-6.87 -3.81 -3.18 -2.87 0 0 Z " fill="#000100" transform="translate(231.9375,639.75)"></path>
<path d="M0 0 C1.9 3.5 3.12 7.11 4.38 10.88 C4.71 11.87 4.71 11.87 5.05 12.87 C5.51 14.25 5.97 15.63 6.42 17.01 C7.13 19.13 7.83 21.24 8.54 23.36 C8.99 24.7 9.44 26.04 9.88 27.38 C10.29 28.6 10.7 29.82 11.11 31.08 C12 34 12 34 12 36 C4.41 36 -3.18 36 -11 36 C-12.16 31.35 -11.54 29.82 -9.98 25.37 C-9.76 24.74 -9.54 24.11 -9.32 23.46 C-8.85 22.13 -8.39 20.8 -7.91 19.47 C-7.19 17.44 -6.48 15.41 -5.78 13.38 C-2.31 3.47 -2.31 3.47 0 0 Z " fill="#91AE4A" transform="translate(850,502)"></path>
<path d="" fill="#000100" transform="translate(0,0)"></path>
<path d="" fill="#000100" transform="translate(0,0)"></path>
<path d="" fill="#000100" transform="translate(0,0)"></path>
</svg><style>@media (prefers-color-scheme: light) { :root { filter: none; } }
</style></svg>